<svg xmlns="http://www.w3.org/2000/svg" width="860" height="52" viewBox="0 0 860 52" role="img" aria-label="TELEMETRY // live · self-rebuilding">
  <text x="14" y="40" font-size="13" font-weight="700" fill="#00ff9c" font-family="'SFMono-Regular',ui-monospace,'JetBrains Mono','Fira Code','Cascadia Code',Consolas,'Liberation Mono',Menlo,monospace">&gt;&gt;</text>
  <text x="42" y="40" font-size="20" font-weight="700" fill="#00ff9c" font-family="'SFMono-Regular',ui-monospace,'JetBrains Mono','Fira Code','Cascadia Code',Consolas,'Liberation Mono',Menlo,monospace" letter-spacing="2">TELEMETRY</text>
  <line x1="175.5" y1="33" x2="684" y2="33" stroke="#00ff9c" stroke-opacity="0.25" stroke-width="1.5"/>
  <line x1="195" y1="30" x2="195" y2="36" stroke="#00ff9c" stroke-opacity="0.3" stroke-width="1"/><line x1="221" y1="30" x2="221" y2="36" stroke="#00ff9c" stroke-opacity="0.3" stroke-width="1"/><line x1="247" y1="30" x2="247" y2="36" stroke="#00ff9c" stroke-opacity="0.3" stroke-width="1"/><line x1="273" y1="30" x2="273" y2="36" stroke="#00ff9c" stroke-opacity="0.3" stroke-width="1"/><line x1="299" y1="30" x2="299" y2="36" stroke="#00ff9c" stroke-opacity="0.3" stroke-width="1"/><line x1="325" y1="30" x2="325" y2="36" stroke="#00ff9c" stroke-opacity="0.3" stroke-width="1"/><line x1="351" y1="30" x2="351" y2="36" stroke="#00ff9c" stroke-opacity="0.3" stroke-width="1"/><line x1="377" y1="30" x2="377" y2="36" stroke="#00ff9c" stroke-opacity="0.3" stroke-width="1"/><line x1="403" y1="30" x2="403" y2="36" stroke="#00ff9c" stroke-opacity="0.3" stroke-width="1"/><line x1="429" y1="30" x2="429" y2="36" stroke="#00ff9c" stroke-opacity="0.3" stroke-width="1"/><line x1="455" y1="30" x2="455" y2="36" stroke="#00ff9c" stroke-opacity="0.3" stroke-width="1"/><line x1="481" y1="30" x2="481" y2="36" stroke="#00ff9c" stroke-opacity="0.3" stroke-width="1"/><line x1="507" y1="30" x2="507" y2="36" stroke="#00ff9c" stroke-opacity="0.3" stroke-width="1"/><line x1="533" y1="30" x2="533" y2="36" stroke="#00ff9c" stroke-opacity="0.3" stroke-width="1"/><line x1="559" y1="30" x2="559" y2="36" stroke="#00ff9c" stroke-opacity="0.3" stroke-width="1"/><line x1="585" y1="30" x2="585" y2="36" stroke="#00ff9c" stroke-opacity="0.3" stroke-width="1"/><line x1="611" y1="30" x2="611" y2="36" stroke="#00ff9c" stroke-opacity="0.3" stroke-width="1"/><line x1="637" y1="30" x2="637" y2="36" stroke="#00ff9c" stroke-opacity="0.3" stroke-width="1"/><line x1="663" y1="30" x2="663" y2="36" stroke="#00ff9c" stroke-opacity="0.3" stroke-width="1"/>
  <rect x="692" y="26" width="9" height="9" fill="#00ff9c">
    <animate attributeName="opacity" values="1;0.2;1" dur="1.6s" repeatCount="indefinite"/>
  </rect>
  <text x="708" y="40" font-size="12" fill="#5c6b64" font-family="'SFMono-Regular',ui-monospace,'JetBrains Mono','Fira Code','Cascadia Code',Consolas,'Liberation Mono',Menlo,monospace">// live · self-rebuilding</text>
</svg>
