<svg xmlns="http://www.w3.org/2000/svg" width="860" height="52" viewBox="0 0 860 52" role="img" aria-label="WHOIS // reach">
  <text x="14" y="40" font-size="13" font-weight="700" fill="#00ff9c" font-family="'SFMono-Regular',ui-monospace,'JetBrains Mono','Fira Code','Cascadia Code',Consolas,'Liberation Mono',Menlo,monospace">&gt;&gt;</text>
  <text x="42" y="40" font-size="20" font-weight="700" fill="#00ff9c" font-family="'SFMono-Regular',ui-monospace,'JetBrains Mono','Fira Code','Cascadia Code',Consolas,'Liberation Mono',Menlo,monospace" letter-spacing="2">WHOIS</text>
  <line x1="121.5" y1="33" x2="684" y2="33" stroke="#00ff9c" stroke-opacity="0.25" stroke-width="1.5"/>
  <line x1="141" y1="30" x2="141" y2="36" stroke="#00ff9c" stroke-opacity="0.3" stroke-width="1"/><line x1="167" y1="30" x2="167" y2="36" stroke="#00ff9c" stroke-opacity="0.3" stroke-width="1"/><line x1="193" y1="30" x2="193" y2="36" stroke="#00ff9c" stroke-opacity="0.3" stroke-width="1"/><line x1="219" y1="30" x2="219" y2="36" stroke="#00ff9c" stroke-opacity="0.3" stroke-width="1"/><line x1="245" y1="30" x2="245" y2="36" stroke="#00ff9c" stroke-opacity="0.3" stroke-width="1"/><line x1="271" y1="30" x2="271" y2="36" stroke="#00ff9c" stroke-opacity="0.3" stroke-width="1"/><line x1="297" y1="30" x2="297" y2="36" stroke="#00ff9c" stroke-opacity="0.3" stroke-width="1"/><line x1="323" y1="30" x2="323" y2="36" stroke="#00ff9c" stroke-opacity="0.3" stroke-width="1"/><line x1="349" y1="30" x2="349" y2="36" stroke="#00ff9c" stroke-opacity="0.3" stroke-width="1"/><line x1="375" y1="30" x2="375" y2="36" stroke="#00ff9c" stroke-opacity="0.3" stroke-width="1"/><line x1="401" y1="30" x2="401" y2="36" stroke="#00ff9c" stroke-opacity="0.3" stroke-width="1"/><line x1="427" y1="30" x2="427" y2="36" stroke="#00ff9c" stroke-opacity="0.3" stroke-width="1"/><line x1="453" y1="30" x2="453" y2="36" stroke="#00ff9c" stroke-opacity="0.3" stroke-width="1"/><line x1="479" y1="30" x2="479" y2="36" stroke="#00ff9c" stroke-opacity="0.3" stroke-width="1"/><line x1="505" y1="30" x2="505" y2="36" stroke="#00ff9c" stroke-opacity="0.3" stroke-width="1"/><line x1="531" y1="30" x2="531" y2="36" stroke="#00ff9c" stroke-opacity="0.3" stroke-width="1"/><line x1="557" y1="30" x2="557" y2="36" stroke="#00ff9c" stroke-opacity="0.3" stroke-width="1"/><line x1="583" y1="30" x2="583" y2="36" stroke="#00ff9c" stroke-opacity="0.3" stroke-width="1"/><line x1="609" y1="30" x2="609" y2="36" stroke="#00ff9c" stroke-opacity="0.3" stroke-width="1"/><line x1="635" y1="30" x2="635" y2="36" stroke="#00ff9c" stroke-opacity="0.3" stroke-width="1"/><line x1="661" y1="30" x2="661" y2="36" stroke="#00ff9c" stroke-opacity="0.3" stroke-width="1"/>
  <rect x="692" y="26" width="9" height="9" fill="#00ff9c">
    <animate attributeName="opacity" values="1;0.2;1" dur="1.6s" repeatCount="indefinite"/>
  </rect>
  <text x="708" y="40" font-size="12" fill="#5c6b64" font-family="'SFMono-Regular',ui-monospace,'JetBrains Mono','Fira Code','Cascadia Code',Consolas,'Liberation Mono',Menlo,monospace">// reach</text>
</svg>
