<svg xmlns="http://www.w3.org/2000/svg" width="860" height="52" viewBox="0 0 860 52" role="img" aria-label="LOADOUT // stack">
  <text x="14" y="40" font-size="13" font-weight="700" fill="#00ff9c" font-family="'SFMono-Regular',ui-monospace,'JetBrains Mono','Fira Code','Cascadia Code',Consolas,'Liberation Mono',Menlo,monospace">&gt;&gt;</text>
  <text x="42" y="40" font-size="20" font-weight="700" fill="#00ff9c" font-family="'SFMono-Regular',ui-monospace,'JetBrains Mono','Fira Code','Cascadia Code',Consolas,'Liberation Mono',Menlo,monospace" letter-spacing="2">LOADOUT</text>
  <line x1="148.5" y1="33" x2="684" y2="33" stroke="#00ff9c" stroke-opacity="0.25" stroke-width="1.5"/>
  <line x1="168" y1="30" x2="168" y2="36" stroke="#00ff9c" stroke-opacity="0.3" stroke-width="1"/><line x1="194" y1="30" x2="194" y2="36" stroke="#00ff9c" stroke-opacity="0.3" stroke-width="1"/><line x1="220" y1="30" x2="220" y2="36" stroke="#00ff9c" stroke-opacity="0.3" stroke-width="1"/><line x1="246" y1="30" x2="246" y2="36" stroke="#00ff9c" stroke-opacity="0.3" stroke-width="1"/><line x1="272" y1="30" x2="272" y2="36" stroke="#00ff9c" stroke-opacity="0.3" stroke-width="1"/><line x1="298" y1="30" x2="298" y2="36" stroke="#00ff9c" stroke-opacity="0.3" stroke-width="1"/><line x1="324" y1="30" x2="324" y2="36" stroke="#00ff9c" stroke-opacity="0.3" stroke-width="1"/><line x1="350" y1="30" x2="350" y2="36" stroke="#00ff9c" stroke-opacity="0.3" stroke-width="1"/><line x1="376" y1="30" x2="376" y2="36" stroke="#00ff9c" stroke-opacity="0.3" stroke-width="1"/><line x1="402" y1="30" x2="402" y2="36" stroke="#00ff9c" stroke-opacity="0.3" stroke-width="1"/><line x1="428" y1="30" x2="428" y2="36" stroke="#00ff9c" stroke-opacity="0.3" stroke-width="1"/><line x1="454" y1="30" x2="454" y2="36" stroke="#00ff9c" stroke-opacity="0.3" stroke-width="1"/><line x1="480" y1="30" x2="480" y2="36" stroke="#00ff9c" stroke-opacity="0.3" stroke-width="1"/><line x1="506" y1="30" x2="506" y2="36" stroke="#00ff9c" stroke-opacity="0.3" stroke-width="1"/><line x1="532" y1="30" x2="532" y2="36" stroke="#00ff9c" stroke-opacity="0.3" stroke-width="1"/><line x1="558" y1="30" x2="558" y2="36" stroke="#00ff9c" stroke-opacity="0.3" stroke-width="1"/><line x1="584" y1="30" x2="584" y2="36" stroke="#00ff9c" stroke-opacity="0.3" stroke-width="1"/><line x1="610" y1="30" x2="610" y2="36" stroke="#00ff9c" stroke-opacity="0.3" stroke-width="1"/><line x1="636" y1="30" x2="636" y2="36" stroke="#00ff9c" stroke-opacity="0.3" stroke-width="1"/><line x1="662" y1="30" x2="662" y2="36" stroke="#00ff9c" stroke-opacity="0.3" stroke-width="1"/>
  <rect x="692" y="26" width="9" height="9" fill="#00ff9c">
    <animate attributeName="opacity" values="1;0.2;1" dur="1.6s" repeatCount="indefinite"/>
  </rect>
  <text x="708" y="40" font-size="12" fill="#5c6b64" font-family="'SFMono-Regular',ui-monospace,'JetBrains Mono','Fira Code','Cascadia Code',Consolas,'Liberation Mono',Menlo,monospace">// stack</text>
</svg>
