<svg xmlns="http://www.w3.org/2000/svg" width="860" height="52" viewBox="0 0 860 52" role="img" aria-label="SELECTED WORK // 3 featured">
  <text x="14" y="40" font-size="13" font-weight="700" fill="#00ff9c" font-family="'SFMono-Regular',ui-monospace,'JetBrains Mono','Fira Code','Cascadia Code',Consolas,'Liberation Mono',Menlo,monospace">&gt;&gt;</text>
  <text x="42" y="40" font-size="20" font-weight="700" fill="#00ff9c" font-family="'SFMono-Regular',ui-monospace,'JetBrains Mono','Fira Code','Cascadia Code',Consolas,'Liberation Mono',Menlo,monospace" letter-spacing="2">SELECTED WORK</text>
  <line x1="229.5" y1="33" x2="684" y2="33" stroke="#00ff9c" stroke-opacity="0.25" stroke-width="1.5"/>
  <line x1="249" y1="30" x2="249" y2="36" stroke="#00ff9c" stroke-opacity="0.3" stroke-width="1"/><line x1="275" y1="30" x2="275" y2="36" stroke="#00ff9c" stroke-opacity="0.3" stroke-width="1"/><line x1="301" y1="30" x2="301" y2="36" stroke="#00ff9c" stroke-opacity="0.3" stroke-width="1"/><line x1="327" y1="30" x2="327" y2="36" stroke="#00ff9c" stroke-opacity="0.3" stroke-width="1"/><line x1="353" y1="30" x2="353" y2="36" stroke="#00ff9c" stroke-opacity="0.3" stroke-width="1"/><line x1="379" y1="30" x2="379" y2="36" stroke="#00ff9c" stroke-opacity="0.3" stroke-width="1"/><line x1="405" y1="30" x2="405" y2="36" stroke="#00ff9c" stroke-opacity="0.3" stroke-width="1"/><line x1="431" y1="30" x2="431" y2="36" stroke="#00ff9c" stroke-opacity="0.3" stroke-width="1"/><line x1="457" y1="30" x2="457" y2="36" stroke="#00ff9c" stroke-opacity="0.3" stroke-width="1"/><line x1="483" y1="30" x2="483" y2="36" stroke="#00ff9c" stroke-opacity="0.3" stroke-width="1"/><line x1="509" y1="30" x2="509" y2="36" stroke="#00ff9c" stroke-opacity="0.3" stroke-width="1"/><line x1="535" y1="30" x2="535" y2="36" stroke="#00ff9c" stroke-opacity="0.3" stroke-width="1"/><line x1="561" y1="30" x2="561" y2="36" stroke="#00ff9c" stroke-opacity="0.3" stroke-width="1"/><line x1="587" y1="30" x2="587" y2="36" stroke="#00ff9c" stroke-opacity="0.3" stroke-width="1"/><line x1="613" y1="30" x2="613" y2="36" stroke="#00ff9c" stroke-opacity="0.3" stroke-width="1"/><line x1="639" y1="30" x2="639" y2="36" stroke="#00ff9c" stroke-opacity="0.3" stroke-width="1"/><line x1="665" y1="30" x2="665" y2="36" stroke="#00ff9c" stroke-opacity="0.3" stroke-width="1"/>
  <rect x="692" y="26" width="9" height="9" fill="#00ff9c">
    <animate attributeName="opacity" values="1;0.2;1" dur="1.6s" repeatCount="indefinite"/>
  </rect>
  <text x="708" y="40" font-size="12" fill="#5c6b64" font-family="'SFMono-Regular',ui-monospace,'JetBrains Mono','Fira Code','Cascadia Code',Consolas,'Liberation Mono',Menlo,monospace">// 3 featured</text>
</svg>
