<svg xmlns="http://www.w3.org/2000/svg" width="860" height="168" viewBox="0 0 860 168" role="img" aria-label="bugbouncer — local-first stability engine. catches architectural failures your tests can't see — then hands you the fix.">
  <defs>
    <linearGradient id="shim0" x1="0" x2="1" y1="0" y2="0">
      <stop offset="0" stop-color="#00ff9c" stop-opacity="0"/>
      <stop offset="0.5" stop-color="#00ff9c" stop-opacity="0.06"/>
      <stop offset="1" stop-color="#00ff9c" stop-opacity="0"/>
    </linearGradient>
    <clipPath id="cclip0"><rect x="1" y="1" width="858" height="166" rx="10"/></clipPath>
  </defs>

  <rect x="1" y="1" width="858" height="166" rx="10" fill="#0a0e0d" stroke="#16241e" stroke-width="1.5"/>
  <rect x="2" y="2" width="5" height="164" fill="#00ff9c" opacity="0.85">
    <animate attributeName="opacity" values="0.85;0.4;0.85" dur="3s" repeatCount="indefinite"/>
  </rect>

  <!-- watermark icon -->
  <g opacity="0.10" transform="translate(705,30) scale(4.5)" fill="none" stroke="#00ff9c" stroke-width="0.55" stroke-linecap="round" stroke-linejoin="round"><path d="M12 20v-9" /> <path d="M14 7a4 4 0 0 1 4 4v3a6 6 0 0 1-12 0v-3a4 4 0 0 1 4-4z" /> <path d="M14.12 3.88 16 2" /> <path d="M21 21a4 4 0 0 0-3.81-4" /> <path d="M21 5a4 4 0 0 1-3.55 3.97" /> <path d="M22 13h-4" /> <path d="M3 21a4 4 0 0 1 3.81-4" /> <path d="M3 5a4 4 0 0 0 3.55 3.97" /> <path d="M6 13H2" /> <path d="m8 2 1.88 1.88" /> <path d="M9 7.13V6a3 3 0 1 1 6 0v1.13" /></g>

  <!-- index -->
  <text x="34" y="86" font-size="46" font-weight="700" fill="#00ff9c" fill-opacity="0.16" font-family="'SFMono-Regular',ui-monospace,'JetBrains Mono','Fira Code','Cascadia Code',Consolas,'Liberation Mono',Menlo,monospace">01</text>

  <!-- title + repo -->
  <text x="92" y="48" font-size="22" font-weight="700" fill="#00ff9c" font-family="'SFMono-Regular',ui-monospace,'JetBrains Mono','Fira Code','Cascadia Code',Consolas,'Liberation Mono',Menlo,monospace">bugbouncer</text>
  <text x="92" y="70" font-size="12" fill="#5c6b64" font-family="'SFMono-Regular',ui-monospace,'JetBrains Mono','Fira Code','Cascadia Code',Consolas,'Liberation Mono',Menlo,monospace">› github.com/KuantumKnight/bugbouncer</text>

  <!-- brief -->
  <text x="92" y="96" font-size="13" fill="#e6f2ec" font-family="'SFMono-Regular',ui-monospace,'JetBrains Mono','Fira Code','Cascadia Code',Consolas,'Liberation Mono',Menlo,monospace">local-first stability engine. catches architectural</text><text x="92" y="114" font-size="13" fill="#e6f2ec" font-family="'SFMono-Regular',ui-monospace,'JetBrains Mono','Fira Code','Cascadia Code',Consolas,'Liberation Mono',Menlo,monospace">failures your tests can't see — then hands you the fix.</text>

  <!-- chips -->
  <rect x="92" y="128" width="40" height="20" rx="4" fill="#5ef2ff" fill-opacity="0.08" stroke="#5ef2ff" stroke-opacity="0.5"/><text x="112" y="142" text-anchor="middle" font-size="11" fill="#5ef2ff" font-family="'SFMono-Regular',ui-monospace,'JetBrains Mono','Fira Code','Cascadia Code',Consolas,'Liberation Mono',Menlo,monospace">59★</text><rect x="140.2" y="128" width="92" height="20" rx="4" fill="#00ff9c" fill-opacity="0.08" stroke="#00ff9c" stroke-opacity="0.5"/><text x="186" y="142" text-anchor="middle" font-size="11" fill="#00ff9c" font-family="'SFMono-Regular',ui-monospace,'JetBrains Mono','Fira Code','Cascadia Code',Consolas,'Liberation Mono',Menlo,monospace">typescript</text><rect x="240.2" y="128" width="99" height="20" rx="4" fill="#00ff9c" fill-opacity="0.08" stroke="#00ff9c" stroke-opacity="0.5"/><text x="290" y="142" text-anchor="middle" font-size="11" fill="#00ff9c" font-family="'SFMono-Regular',ui-monospace,'JetBrains Mono','Fira Code','Cascadia Code',Consolas,'Liberation Mono',Menlo,monospace">sqlite-wasm</text><rect x="347.6" y="128" width="92" height="20" rx="4" fill="#00ff9c" fill-opacity="0.08" stroke="#00ff9c" stroke-opacity="0.5"/><text x="394" y="142" text-anchor="middle" font-size="11" fill="#00ff9c" font-family="'SFMono-Regular',ui-monospace,'JetBrains Mono','Fira Code','Cascadia Code',Consolas,'Liberation Mono',Menlo,monospace">next.js 16</text>

  <!-- hud brackets + scan shimmer -->
  <path d="M14,16 L14,8 L26,8" fill="none" stroke="#00ff9c" stroke-opacity="0.5"/>
  <path d="M846,152 L846,160 L834,160" fill="none" stroke="#00ff9c" stroke-opacity="0.5"/>
  <g clip-path="url(#cclip0)">
    <rect x="-200" y="1" width="200" height="166" fill="url(#shim0)">
      <animate attributeName="x" values="-200;860;860" keyTimes="0;0.6;1" dur="6s" begin="0.0s" repeatCount="indefinite"/>
    </rect>
  </g>
</svg>
