<svg xmlns="http://www.w3.org/2000/svg" width="860" height="168" viewBox="0 0 860 168" role="img" aria-label="zeroday heist · writeups — forensics, reverse engineering, osint, steganography, crypto. full notes, not just flags.">
  <defs>
    <linearGradient id="shim2" x1="0" x2="1" y1="0" y2="0">
      <stop offset="0" stop-color="#00ff9c" stop-opacity="0"/>
      <stop offset="0.5" stop-color="#00ff9c" stop-opacity="0.06"/>
      <stop offset="1" stop-color="#00ff9c" stop-opacity="0"/>
    </linearGradient>
    <clipPath id="cclip2"><rect x="1" y="1" width="858" height="166" rx="10"/></clipPath>
  </defs>

  <rect x="1" y="1" width="858" height="166" rx="10" fill="#0a0e0d" stroke="#16241e" stroke-width="1.5"/>
  <rect x="2" y="2" width="5" height="164" fill="#00ff9c" opacity="0.85">
    <animate attributeName="opacity" values="0.85;0.4;0.85" dur="3s" repeatCount="indefinite"/>
  </rect>

  <!-- watermark icon -->
  <g opacity="0.10" transform="translate(705,30) scale(4.5)" fill="none" stroke="#00ff9c" stroke-width="0.55" stroke-linecap="round" stroke-linejoin="round"><path d="M4 22V4a1 1 0 0 1 .4-.8A6 6 0 0 1 8 2c3 0 5 2 7.333 2q2 0 3.067-.8A1 1 0 0 1 20 4v10a1 1 0 0 1-.4.8A6 6 0 0 1 16 16c-3 0-5-2-8-2a6 6 0 0 0-4 1.528" /></g>

  <!-- index -->
  <text x="34" y="86" font-size="46" font-weight="700" fill="#00ff9c" fill-opacity="0.16" font-family="'SFMono-Regular',ui-monospace,'JetBrains Mono','Fira Code','Cascadia Code',Consolas,'Liberation Mono',Menlo,monospace">03</text>

  <!-- title + repo -->
  <text x="92" y="48" font-size="22" font-weight="700" fill="#00ff9c" font-family="'SFMono-Regular',ui-monospace,'JetBrains Mono','Fira Code','Cascadia Code',Consolas,'Liberation Mono',Menlo,monospace">zeroday heist · writeups</text>
  <text x="92" y="70" font-size="12" fill="#5c6b64" font-family="'SFMono-Regular',ui-monospace,'JetBrains Mono','Fira Code','Cascadia Code',Consolas,'Liberation Mono',Menlo,monospace">› github.com/KuantumKnight/ZeroDayHeist_CTF_Writeups</text>

  <!-- brief -->
  <text x="92" y="96" font-size="13" fill="#e6f2ec" font-family="'SFMono-Regular',ui-monospace,'JetBrains Mono','Fira Code','Cascadia Code',Consolas,'Liberation Mono',Menlo,monospace">forensics, reverse engineering, osint, steganography,</text><text x="92" y="114" font-size="13" fill="#e6f2ec" font-family="'SFMono-Regular',ui-monospace,'JetBrains Mono','Fira Code','Cascadia Code',Consolas,'Liberation Mono',Menlo,monospace">crypto. full notes, not just flags.</text>

  <!-- chips -->
  <rect x="92" y="128" width="77" height="20" rx="4" fill="#5ef2ff" fill-opacity="0.08" stroke="#5ef2ff" stroke-opacity="0.5"/><text x="131" y="142" text-anchor="middle" font-size="11" fill="#5ef2ff" font-family="'SFMono-Regular',ui-monospace,'JetBrains Mono','Fira Code','Cascadia Code',Consolas,'Liberation Mono',Menlo,monospace">17 flags</text><rect x="177.2" y="128" width="40" height="20" rx="4" fill="#00ff9c" fill-opacity="0.08" stroke="#00ff9c" stroke-opacity="0.5"/><text x="197" y="142" text-anchor="middle" font-size="11" fill="#00ff9c" font-family="'SFMono-Regular',ui-monospace,'JetBrains Mono','Fira Code','Cascadia Code',Consolas,'Liberation Mono',Menlo,monospace">ctf</text><rect x="225.39999999999998" y="128" width="77" height="20" rx="4" fill="#00ff9c" fill-opacity="0.08" stroke="#00ff9c" stroke-opacity="0.5"/><text x="264" y="142" text-anchor="middle" font-size="11" fill="#00ff9c" font-family="'SFMono-Regular',ui-monospace,'JetBrains Mono','Fira Code','Cascadia Code',Consolas,'Liberation Mono',Menlo,monospace">writeups</text>

  <!-- hud brackets + scan shimmer -->
  <path d="M14,16 L14,8 L26,8" fill="none" stroke="#00ff9c" stroke-opacity="0.5"/>
  <path d="M846,152 L846,160 L834,160" fill="none" stroke="#00ff9c" stroke-opacity="0.5"/>
  <g clip-path="url(#cclip2)">
    <rect x="-200" y="1" width="200" height="166" fill="url(#shim2)">
      <animate attributeName="x" values="-200;860;860" keyTimes="0;0.6;1" dur="6s" begin="2.6s" repeatCount="indefinite"/>
    </rect>
  </g>
</svg>
