<svg xmlns="http://www.w3.org/2000/svg" width="806" height="208" viewBox="0 0 806 208" role="img" aria-label="contribution chart scanned by a sweep line: 56 active days">
  <defs>
    <linearGradient id="beam" x1="0" x2="1" y1="0" y2="0">
      <stop offset="0" stop-color="#00ff9c" stop-opacity="0"/>
      <stop offset="0.5" stop-color="#00ff9c" stop-opacity="0.85"/>
      <stop offset="1" stop-color="#00ff9c" stop-opacity="0"/>
    </linearGradient>
    <pattern id="crt" width="3" height="3" patternUnits="userSpaceOnUse">
      <rect width="3" height="1" fill="#00ff9c" opacity="0.05"/>
    </pattern>
    <clipPath id="gclip"><rect x="40" y="56" width="747" height="102"/></clipPath>
  </defs>

  <rect x="1" y="1" width="804" height="206" rx="10" fill="#0a0e0d" stroke="#16241e" stroke-width="1.5"/>
  <rect x="1" y="1" width="804" height="34" rx="10" fill="#0d1411"/>
  <rect x="1" y="24" width="804" height="11" fill="#0d1411"/>
  <line x1="1" y1="35" x2="805" y2="35" stroke="#16241e" stroke-width="1.5"/>
  <circle cx="22" cy="18" r="5" fill="#ff5f56" opacity="0.85"/>
  <circle cx="40" cy="18" r="5" fill="#febc2e" opacity="0.85"/>
  <circle cx="58" cy="18" r="5" fill="#27c93f" opacity="0.85"/>
  <text x="78" y="22" font-size="12" fill="#5c6b64" font-family="'SFMono-Regular',ui-monospace,'JetBrains Mono','Fira Code','Cascadia Code',Consolas,'Liberation Mono',Menlo,monospace">~/contrib $ ./scan --year</text>
  <text x="790" y="22" text-anchor="end" font-size="12" fill="#5c6b64" font-family="'SFMono-Regular',ui-monospace,'JetBrains Mono','Fira Code','Cascadia Code',Consolas,'Liberation Mono',Menlo,monospace">56 active days</text>

  <text x="44" y="52" font-size="9" fill="#5c6b64" font-family="'SFMono-Regular',ui-monospace,'JetBrains Mono','Fira Code','Cascadia Code',Consolas,'Liberation Mono',Menlo,monospace">jun</text><text x="44" y="52" font-size="9" fill="#5c6b64" font-family="'SFMono-Regular',ui-monospace,'JetBrains Mono','Fira Code','Cascadia Code',Consolas,'Liberation Mono',Menlo,monospace">jul</text><text x="100" y="52" font-size="9" fill="#5c6b64" font-family="'SFMono-Regular',ui-monospace,'JetBrains Mono','Fira Code','Cascadia Code',Consolas,'Liberation Mono',Menlo,monospace">aug</text><text x="170" y="52" font-size="9" fill="#5c6b64" font-family="'SFMono-Regular',ui-monospace,'JetBrains Mono','Fira Code','Cascadia Code',Consolas,'Liberation Mono',Menlo,monospace">sep</text><text x="226" y="52" font-size="9" fill="#5c6b64" font-family="'SFMono-Regular',ui-monospace,'JetBrains Mono','Fira Code','Cascadia Code',Consolas,'Liberation Mono',Menlo,monospace">oct</text><text x="282" y="52" font-size="9" fill="#5c6b64" font-family="'SFMono-Regular',ui-monospace,'JetBrains Mono','Fira Code','Cascadia Code',Consolas,'Liberation Mono',Menlo,monospace">nov</text><text x="352" y="52" font-size="9" fill="#5c6b64" font-family="'SFMono-Regular',ui-monospace,'JetBrains Mono','Fira Code','Cascadia Code',Consolas,'Liberation Mono',Menlo,monospace">dec</text><text x="408" y="52" font-size="9" fill="#5c6b64" font-family="'SFMono-Regular',ui-monospace,'JetBrains Mono','Fira Code','Cascadia Code',Consolas,'Liberation Mono',Menlo,monospace">jan</text><text x="478" y="52" font-size="9" fill="#5c6b64" font-family="'SFMono-Regular',ui-monospace,'JetBrains Mono','Fira Code','Cascadia Code',Consolas,'Liberation Mono',Menlo,monospace">feb</text><text x="534" y="52" font-size="9" fill="#5c6b64" font-family="'SFMono-Regular',ui-monospace,'JetBrains Mono','Fira Code','Cascadia Code',Consolas,'Liberation Mono',Menlo,monospace">mar</text><text x="590" y="52" font-size="9" fill="#5c6b64" font-family="'SFMono-Regular',ui-monospace,'JetBrains Mono','Fira Code','Cascadia Code',Consolas,'Liberation Mono',Menlo,monospace">apr</text><text x="646" y="52" font-size="9" fill="#5c6b64" font-family="'SFMono-Regular',ui-monospace,'JetBrains Mono','Fira Code','Cascadia Code',Consolas,'Liberation Mono',Menlo,monospace">may</text><text x="716" y="52" font-size="9" fill="#5c6b64" font-family="'SFMono-Regular',ui-monospace,'JetBrains Mono','Fira Code','Cascadia Code',Consolas,'Liberation Mono',Menlo,monospace">jun</text>
  <text x="36" y="84" text-anchor="end" font-size="9" fill="#5c6b64" font-family="'SFMono-Regular',ui-monospace,'JetBrains Mono','Fira Code','Cascadia Code',Consolas,'Liberation Mono',Menlo,monospace">mon</text><text x="36" y="112" text-anchor="end" font-size="9" fill="#5c6b64" font-family="'SFMono-Regular',ui-monospace,'JetBrains Mono','Fira Code','Cascadia Code',Consolas,'Liberation Mono',Menlo,monospace">wed</text><text x="36" y="140" text-anchor="end" font-size="9" fill="#5c6b64" font-family="'SFMono-Regular',ui-monospace,'JetBrains Mono','Fira Code','Cascadia Code',Consolas,'Liberation Mono',Menlo,monospace">fri</text>

  <!-- empty base grid -->
  <g><rect x="44" y="60" width="11" height="11" rx="2.5" fill="#11201a"/><rect x="58" y="60" width="11" height="11" rx="2.5" fill="#11201a"/><rect x="72" y="60" width="11" height="11" rx="2.5" fill="#11201a"/><rect x="86" y="60" width="11" height="11" rx="2.5" fill="#11201a"/><rect x="100" y="60" width="11" height="11" rx="2.5" fill="#11201a"/><rect x="114" y="60" width="11" height="11" rx="2.5" fill="#11201a"/><rect x="128" y="60" width="11" height="11" rx="2.5" fill="#11201a"/><rect x="142" y="60" width="11" height="11" rx="2.5" fill="#11201a"/><rect x="156" y="60" width="11" height="11" rx="2.5" fill="#11201a"/><rect x="170" y="60" width="11" height="11" rx="2.5" fill="#11201a"/><rect x="184" y="60" width="11" height="11" rx="2.5" fill="#11201a"/><rect x="198" y="60" width="11" height="11" rx="2.5" fill="#11201a"/><rect x="212" y="60" width="11" height="11" rx="2.5" fill="#11201a"/><rect x="226" y="60" width="11" height="11" rx="2.5" fill="#11201a"/><rect x="240" y="60" width="11" height="11" rx="2.5" fill="#11201a"/><rect x="254" y="60" width="11" height="11" rx="2.5" fill="#11201a"/><rect x="268" y="60" width="11" height="11" rx="2.5" fill="#11201a"/><rect x="282" y="60" width="11" height="11" rx="2.5" fill="#11201a"/><rect x="296" y="60" width="11" height="11" rx="2.5" fill="#11201a"/><rect x="310" y="60" width="11" height="11" rx="2.5" fill="#11201a"/><rect x="324" y="60" width="11" height="11" rx="2.5" fill="#11201a"/><rect x="338" y="60" width="11" height="11" rx="2.5" fill="#11201a"/><rect x="352" y="60" width="11" height="11" rx="2.5" fill="#11201a"/><rect x="366" y="60" width="11" height="11" rx="2.5" fill="#11201a"/><rect x="380" y="60" width="11" height="11" rx="2.5" fill="#11201a"/><rect x="394" y="60" width="11" height="11" rx="2.5" fill="#11201a"/><rect x="408" y="60" width="11" height="11" rx="2.5" fill="#11201a"/><rect x="422" y="60" width="11" height="11" rx="2.5" fill="#11201a"/><rect x="436" y="60" width="11" height="11" rx="2.5" fill="#11201a"/><rect x="450" y="60" width="11" height="11" rx="2.5" fill="#11201a"/><rect x="464" y="60" width="11" height="11" rx="2.5" fill="#11201a"/><rect x="478" y="60" width="11" height="11" rx="2.5" fill="#11201a"/><rect x="492" y="60" width="11" height="11" rx="2.5" fill="#11201a"/><rect x="506" y="60" width="11" height="11" rx="2.5" fill="#11201a"/><rect x="520" y="60" width="11" height="11" rx="2.5" fill="#11201a"/><rect x="534" y="60" width="11" height="11" rx="2.5" fill="#11201a"/><rect x="548" y="60" width="11" height="11" rx="2.5" fill="#11201a"/><rect x="562" y="60" width="11" height="11" rx="2.5" fill="#11201a"/><rect x="576" y="60" width="11" height="11" rx="2.5" fill="#11201a"/><rect x="590" y="60" width="11" height="11" rx="2.5" fill="#11201a"/><rect x="604" y="60" width="11" height="11" rx="2.5" fill="#11201a"/><rect x="618" y="60" width="11" height="11" rx="2.5" fill="#11201a"/><rect x="632" y="60" width="11" height="11" rx="2.5" fill="#11201a"/><rect x="646" y="60" width="11" height="11" rx="2.5" fill="#11201a"/><rect x="660" y="60" width="11" height="11" rx="2.5" fill="#11201a"/><rect x="674" y="60" width="11" height="11" rx="2.5" fill="#11201a"/><rect x="688" y="60" width="11" height="11" rx="2.5" fill="#11201a"/><rect x="702" y="60" width="11" height="11" rx="2.5" fill="#11201a"/><rect x="716" y="60" width="11" height="11" rx="2.5" fill="#11201a"/><rect x="730" y="60" width="11" height="11" rx="2.5" fill="#11201a"/><rect x="744" y="60" width="11" height="11" rx="2.5" fill="#11201a"/><rect x="758" y="60" width="11" height="11" rx="2.5" fill="#11201a"/><rect x="772" y="60" width="11" height="11" rx="2.5" fill="#11201a"/><rect x="44" y="74" width="11" height="11" rx="2.5" fill="#11201a"/><rect x="58" y="74" width="11" height="11" rx="2.5" fill="#11201a"/><rect x="72" y="74" width="11" height="11" rx="2.5" fill="#11201a"/><rect x="86" y="74" width="11" height="11" rx="2.5" fill="#11201a"/><rect x="100" y="74" width="11" height="11" rx="2.5" fill="#11201a"/><rect x="114" y="74" width="11" height="11" rx="2.5" fill="#11201a"/><rect x="128" y="74" width="11" height="11" rx="2.5" fill="#11201a"/><rect x="142" y="74" width="11" height="11" rx="2.5" fill="#11201a"/><rect x="156" y="74" width="11" height="11" rx="2.5" fill="#11201a"/><rect x="170" y="74" width="11" height="11" rx="2.5" fill="#11201a"/><rect x="184" y="74" width="11" height="11" rx="2.5" fill="#11201a"/><rect x="198" y="74" width="11" height="11" rx="2.5" fill="#11201a"/><rect x="212" y="74" width="11" height="11" rx="2.5" fill="#11201a"/><rect x="226" y="74" width="11" height="11" rx="2.5" fill="#11201a"/><rect x="240" y="74" width="11" height="11" rx="2.5" fill="#11201a"/><rect x="254" y="74" width="11" height="11" rx="2.5" fill="#11201a"/><rect x="268" y="74" width="11" height="11" rx="2.5" fill="#11201a"/><rect x="282" y="74" width="11" height="11" rx="2.5" fill="#11201a"/><rect x="296" y="74" width="11" height="11" rx="2.5" fill="#11201a"/><rect x="310" y="74" width="11" height="11" rx="2.5" fill="#11201a"/><rect x="324" y="74" width="11" height="11" rx="2.5" fill="#11201a"/><rect x="338" y="74" width="11" height="11" rx="2.5" fill="#11201a"/><rect x="352" y="74" width="11" height="11" rx="2.5" fill="#11201a"/><rect x="366" y="74" width="11" height="11" rx="2.5" fill="#11201a"/><rect x="380" y="74" width="11" height="11" rx="2.5" fill="#11201a"/><rect x="394" y="74" width="11" height="11" rx="2.5" fill="#11201a"/><rect x="408" y="74" width="11" height="11" rx="2.5" fill="#11201a"/><rect x="422" y="74" width="11" height="11" rx="2.5" fill="#11201a"/><rect x="436" y="74" width="11" height="11" rx="2.5" fill="#11201a"/><rect x="450" y="74" width="11" height="11" rx="2.5" fill="#11201a"/><rect x="464" y="74" width="11" height="11" rx="2.5" fill="#11201a"/><rect x="478" y="74" width="11" height="11" rx="2.5" fill="#11201a"/><rect x="492" y="74" width="11" height="11" rx="2.5" fill="#11201a"/><rect x="506" y="74" width="11" height="11" rx="2.5" fill="#11201a"/><rect x="520" y="74" width="11" height="11" rx="2.5" fill="#11201a"/><rect x="534" y="74" width="11" height="11" rx="2.5" fill="#11201a"/><rect x="548" y="74" width="11" height="11" rx="2.5" fill="#11201a"/><rect x="562" y="74" width="11" height="11" rx="2.5" fill="#11201a"/><rect x="576" y="74" width="11" height="11" rx="2.5" fill="#11201a"/><rect x="590" y="74" width="11" height="11" rx="2.5" fill="#11201a"/><rect x="604" y="74" width="11" height="11" rx="2.5" fill="#11201a"/><rect x="618" y="74" width="11" height="11" rx="2.5" fill="#11201a"/><rect x="632" y="74" width="11" height="11" rx="2.5" fill="#11201a"/><rect x="646" y="74" width="11" height="11" rx="2.5" fill="#11201a"/><rect x="660" y="74" width="11" height="11" rx="2.5" fill="#11201a"/><rect x="674" y="74" width="11" height="11" rx="2.5" fill="#11201a"/><rect x="688" y="74" width="11" height="11" rx="2.5" fill="#11201a"/><rect x="702" y="74" width="11" height="11" rx="2.5" fill="#11201a"/><rect x="716" y="74" width="11" height="11" rx="2.5" fill="#11201a"/><rect x="730" y="74" width="11" height="11" rx="2.5" fill="#11201a"/><rect x="744" y="74" width="11" height="11" rx="2.5" fill="#11201a"/><rect x="758" y="74" width="11" height="11" rx="2.5" fill="#11201a"/><rect x="772" y="74" width="11" height="11" rx="2.5" fill="#11201a"/><rect x="44" y="88" width="11" height="11" rx="2.5" fill="#11201a"/><rect x="58" y="88" width="11" height="11" rx="2.5" fill="#11201a"/><rect x="72" y="88" width="11" height="11" rx="2.5" fill="#11201a"/><rect x="86" y="88" width="11" height="11" rx="2.5" fill="#11201a"/><rect x="100" y="88" width="11" height="11" rx="2.5" fill="#11201a"/><rect x="114" y="88" width="11" height="11" rx="2.5" fill="#11201a"/><rect x="128" y="88" width="11" height="11" rx="2.5" fill="#11201a"/><rect x="142" y="88" width="11" height="11" rx="2.5" fill="#11201a"/><rect x="156" y="88" width="11" height="11" rx="2.5" fill="#11201a"/><rect x="170" y="88" width="11" height="11" rx="2.5" fill="#11201a"/><rect x="184" y="88" width="11" height="11" rx="2.5" fill="#11201a"/><rect x="198" y="88" width="11" height="11" rx="2.5" fill="#11201a"/><rect x="212" y="88" width="11" height="11" rx="2.5" fill="#11201a"/><rect x="226" y="88" width="11" height="11" rx="2.5" fill="#11201a"/><rect x="240" y="88" width="11" height="11" rx="2.5" fill="#11201a"/><rect x="254" y="88" width="11" height="11" rx="2.5" fill="#11201a"/><rect x="268" y="88" width="11" height="11" rx="2.5" fill="#11201a"/><rect x="282" y="88" width="11" height="11" rx="2.5" fill="#11201a"/><rect x="296" y="88" width="11" height="11" rx="2.5" fill="#11201a"/><rect x="310" y="88" width="11" height="11" rx="2.5" fill="#11201a"/><rect x="324" y="88" width="11" height="11" rx="2.5" fill="#11201a"/><rect x="338" y="88" width="11" height="11" rx="2.5" fill="#11201a"/><rect x="352" y="88" width="11" height="11" rx="2.5" fill="#11201a"/><rect x="366" y="88" width="11" height="11" rx="2.5" fill="#11201a"/><rect x="380" y="88" width="11" height="11" rx="2.5" fill="#11201a"/><rect x="394" y="88" width="11" height="11" rx="2.5" fill="#11201a"/><rect x="408" y="88" width="11" height="11" rx="2.5" fill="#11201a"/><rect x="422" y="88" width="11" height="11" rx="2.5" fill="#11201a"/><rect x="436" y="88" width="11" height="11" rx="2.5" fill="#11201a"/><rect x="450" y="88" width="11" height="11" rx="2.5" fill="#11201a"/><rect x="464" y="88" width="11" height="11" rx="2.5" fill="#11201a"/><rect x="478" y="88" width="11" height="11" rx="2.5" fill="#11201a"/><rect x="492" y="88" width="11" height="11" rx="2.5" fill="#11201a"/><rect x="506" y="88" width="11" height="11" rx="2.5" fill="#11201a"/><rect x="520" y="88" width="11" height="11" rx="2.5" fill="#11201a"/><rect x="534" y="88" width="11" height="11" rx="2.5" fill="#11201a"/><rect x="548" y="88" width="11" height="11" rx="2.5" fill="#11201a"/><rect x="562" y="88" width="11" height="11" rx="2.5" fill="#11201a"/><rect x="576" y="88" width="11" height="11" rx="2.5" fill="#11201a"/><rect x="590" y="88" width="11" height="11" rx="2.5" fill="#11201a"/><rect x="604" y="88" width="11" height="11" rx="2.5" fill="#11201a"/><rect x="618" y="88" width="11" height="11" rx="2.5" fill="#11201a"/><rect x="632" y="88" width="11" height="11" rx="2.5" fill="#11201a"/><rect x="646" y="88" width="11" height="11" rx="2.5" fill="#11201a"/><rect x="660" y="88" width="11" height="11" rx="2.5" fill="#11201a"/><rect x="674" y="88" width="11" height="11" rx="2.5" fill="#11201a"/><rect x="688" y="88" width="11" height="11" rx="2.5" fill="#11201a"/><rect x="702" y="88" width="11" height="11" rx="2.5" fill="#11201a"/><rect x="716" y="88" width="11" height="11" rx="2.5" fill="#11201a"/><rect x="730" y="88" width="11" height="11" rx="2.5" fill="#11201a"/><rect x="744" y="88" width="11" height="11" rx="2.5" fill="#11201a"/><rect x="758" y="88" width="11" height="11" rx="2.5" fill="#11201a"/><rect x="772" y="88" width="11" height="11" rx="2.5" fill="#11201a"/><rect x="44" y="102" width="11" height="11" rx="2.5" fill="#11201a"/><rect x="58" y="102" width="11" height="11" rx="2.5" fill="#11201a"/><rect x="72" y="102" width="11" height="11" rx="2.5" fill="#11201a"/><rect x="86" y="102" width="11" height="11" rx="2.5" fill="#11201a"/><rect x="100" y="102" width="11" height="11" rx="2.5" fill="#11201a"/><rect x="114" y="102" width="11" height="11" rx="2.5" fill="#11201a"/><rect x="128" y="102" width="11" height="11" rx="2.5" fill="#11201a"/><rect x="142" y="102" width="11" height="11" rx="2.5" fill="#11201a"/><rect x="156" y="102" width="11" height="11" rx="2.5" fill="#11201a"/><rect x="170" y="102" width="11" height="11" rx="2.5" fill="#11201a"/><rect x="184" y="102" width="11" height="11" rx="2.5" fill="#11201a"/><rect x="198" y="102" width="11" height="11" rx="2.5" fill="#11201a"/><rect x="212" y="102" width="11" height="11" rx="2.5" fill="#11201a"/><rect x="226" y="102" width="11" height="11" rx="2.5" fill="#11201a"/><rect x="240" y="102" width="11" height="11" rx="2.5" fill="#11201a"/><rect x="254" y="102" width="11" height="11" rx="2.5" fill="#11201a"/><rect x="268" y="102" width="11" height="11" rx="2.5" fill="#11201a"/><rect x="282" y="102" width="11" height="11" rx="2.5" fill="#11201a"/><rect x="296" y="102" width="11" height="11" rx="2.5" fill="#11201a"/><rect x="310" y="102" width="11" height="11" rx="2.5" fill="#11201a"/><rect x="324" y="102" width="11" height="11" rx="2.5" fill="#11201a"/><rect x="338" y="102" width="11" height="11" rx="2.5" fill="#11201a"/><rect x="352" y="102" width="11" height="11" rx="2.5" fill="#11201a"/><rect x="366" y="102" width="11" height="11" rx="2.5" fill="#11201a"/><rect x="380" y="102" width="11" height="11" rx="2.5" fill="#11201a"/><rect x="394" y="102" width="11" height="11" rx="2.5" fill="#11201a"/><rect x="408" y="102" width="11" height="11" rx="2.5" fill="#11201a"/><rect x="422" y="102" width="11" height="11" rx="2.5" fill="#11201a"/><rect x="436" y="102" width="11" height="11" rx="2.5" fill="#11201a"/><rect x="450" y="102" width="11" height="11" rx="2.5" fill="#11201a"/><rect x="464" y="102" width="11" height="11" rx="2.5" fill="#11201a"/><rect x="478" y="102" width="11" height="11" rx="2.5" fill="#11201a"/><rect x="492" y="102" width="11" height="11" rx="2.5" fill="#11201a"/><rect x="506" y="102" width="11" height="11" rx="2.5" fill="#11201a"/><rect x="520" y="102" width="11" height="11" rx="2.5" fill="#11201a"/><rect x="534" y="102" width="11" height="11" rx="2.5" fill="#11201a"/><rect x="548" y="102" width="11" height="11" rx="2.5" fill="#11201a"/><rect x="562" y="102" width="11" height="11" rx="2.5" fill="#11201a"/><rect x="576" y="102" width="11" height="11" rx="2.5" fill="#11201a"/><rect x="590" y="102" width="11" height="11" rx="2.5" fill="#11201a"/><rect x="604" y="102" width="11" height="11" rx="2.5" fill="#11201a"/><rect x="618" y="102" width="11" height="11" rx="2.5" fill="#11201a"/><rect x="632" y="102" width="11" height="11" rx="2.5" fill="#11201a"/><rect x="646" y="102" width="11" height="11" rx="2.5" fill="#11201a"/><rect x="660" y="102" width="11" height="11" rx="2.5" fill="#11201a"/><rect x="674" y="102" width="11" height="11" rx="2.5" fill="#11201a"/><rect x="688" y="102" width="11" height="11" rx="2.5" fill="#11201a"/><rect x="702" y="102" width="11" height="11" rx="2.5" fill="#11201a"/><rect x="716" y="102" width="11" height="11" rx="2.5" fill="#11201a"/><rect x="730" y="102" width="11" height="11" rx="2.5" fill="#11201a"/><rect x="744" y="102" width="11" height="11" rx="2.5" fill="#11201a"/><rect x="758" y="102" width="11" height="11" rx="2.5" fill="#11201a"/><rect x="44" y="116" width="11" height="11" rx="2.5" fill="#11201a"/><rect x="58" y="116" width="11" height="11" rx="2.5" fill="#11201a"/><rect x="72" y="116" width="11" height="11" rx="2.5" fill="#11201a"/><rect x="86" y="116" width="11" height="11" rx="2.5" fill="#11201a"/><rect x="100" y="116" width="11" height="11" rx="2.5" fill="#11201a"/><rect x="114" y="116" width="11" height="11" rx="2.5" fill="#11201a"/><rect x="128" y="116" width="11" height="11" rx="2.5" fill="#11201a"/><rect x="142" y="116" width="11" height="11" rx="2.5" fill="#11201a"/><rect x="156" y="116" width="11" height="11" rx="2.5" fill="#11201a"/><rect x="170" y="116" width="11" height="11" rx="2.5" fill="#11201a"/><rect x="184" y="116" width="11" height="11" rx="2.5" fill="#11201a"/><rect x="198" y="116" width="11" height="11" rx="2.5" fill="#11201a"/><rect x="212" y="116" width="11" height="11" rx="2.5" fill="#11201a"/><rect x="226" y="116" width="11" height="11" rx="2.5" fill="#11201a"/><rect x="240" y="116" width="11" height="11" rx="2.5" fill="#11201a"/><rect x="254" y="116" width="11" height="11" rx="2.5" fill="#11201a"/><rect x="268" y="116" width="11" height="11" rx="2.5" fill="#11201a"/><rect x="282" y="116" width="11" height="11" rx="2.5" fill="#11201a"/><rect x="296" y="116" width="11" height="11" rx="2.5" fill="#11201a"/><rect x="310" y="116" width="11" height="11" rx="2.5" fill="#11201a"/><rect x="324" y="116" width="11" height="11" rx="2.5" fill="#11201a"/><rect x="338" y="116" width="11" height="11" rx="2.5" fill="#11201a"/><rect x="352" y="116" width="11" height="11" rx="2.5" fill="#11201a"/><rect x="366" y="116" width="11" height="11" rx="2.5" fill="#11201a"/><rect x="380" y="116" width="11" height="11" rx="2.5" fill="#11201a"/><rect x="394" y="116" width="11" height="11" rx="2.5" fill="#11201a"/><rect x="408" y="116" width="11" height="11" rx="2.5" fill="#11201a"/><rect x="422" y="116" width="11" height="11" rx="2.5" fill="#11201a"/><rect x="436" y="116" width="11" height="11" rx="2.5" fill="#11201a"/><rect x="450" y="116" width="11" height="11" rx="2.5" fill="#11201a"/><rect x="464" y="116" width="11" height="11" rx="2.5" fill="#11201a"/><rect x="478" y="116" width="11" height="11" rx="2.5" fill="#11201a"/><rect x="492" y="116" width="11" height="11" rx="2.5" fill="#11201a"/><rect x="506" y="116" width="11" height="11" rx="2.5" fill="#11201a"/><rect x="520" y="116" width="11" height="11" rx="2.5" fill="#11201a"/><rect x="534" y="116" width="11" height="11" rx="2.5" fill="#11201a"/><rect x="548" y="116" width="11" height="11" rx="2.5" fill="#11201a"/><rect x="562" y="116" width="11" height="11" rx="2.5" fill="#11201a"/><rect x="576" y="116" width="11" height="11" rx="2.5" fill="#11201a"/><rect x="590" y="116" width="11" height="11" rx="2.5" fill="#11201a"/><rect x="604" y="116" width="11" height="11" rx="2.5" fill="#11201a"/><rect x="618" y="116" width="11" height="11" rx="2.5" fill="#11201a"/><rect x="632" y="116" width="11" height="11" rx="2.5" fill="#11201a"/><rect x="646" y="116" width="11" height="11" rx="2.5" fill="#11201a"/><rect x="660" y="116" width="11" height="11" rx="2.5" fill="#11201a"/><rect x="674" y="116" width="11" height="11" rx="2.5" fill="#11201a"/><rect x="688" y="116" width="11" height="11" rx="2.5" fill="#11201a"/><rect x="702" y="116" width="11" height="11" rx="2.5" fill="#11201a"/><rect x="716" y="116" width="11" height="11" rx="2.5" fill="#11201a"/><rect x="730" y="116" width="11" height="11" rx="2.5" fill="#11201a"/><rect x="744" y="116" width="11" height="11" rx="2.5" fill="#11201a"/><rect x="758" y="116" width="11" height="11" rx="2.5" fill="#11201a"/><rect x="44" y="130" width="11" height="11" rx="2.5" fill="#11201a"/><rect x="58" y="130" width="11" height="11" rx="2.5" fill="#11201a"/><rect x="72" y="130" width="11" height="11" rx="2.5" fill="#11201a"/><rect x="86" y="130" width="11" height="11" rx="2.5" fill="#11201a"/><rect x="100" y="130" width="11" height="11" rx="2.5" fill="#11201a"/><rect x="114" y="130" width="11" height="11" rx="2.5" fill="#11201a"/><rect x="128" y="130" width="11" height="11" rx="2.5" fill="#11201a"/><rect x="142" y="130" width="11" height="11" rx="2.5" fill="#11201a"/><rect x="156" y="130" width="11" height="11" rx="2.5" fill="#11201a"/><rect x="170" y="130" width="11" height="11" rx="2.5" fill="#11201a"/><rect x="184" y="130" width="11" height="11" rx="2.5" fill="#11201a"/><rect x="198" y="130" width="11" height="11" rx="2.5" fill="#11201a"/><rect x="212" y="130" width="11" height="11" rx="2.5" fill="#11201a"/><rect x="226" y="130" width="11" height="11" rx="2.5" fill="#11201a"/><rect x="240" y="130" width="11" height="11" rx="2.5" fill="#11201a"/><rect x="254" y="130" width="11" height="11" rx="2.5" fill="#11201a"/><rect x="268" y="130" width="11" height="11" rx="2.5" fill="#11201a"/><rect x="282" y="130" width="11" height="11" rx="2.5" fill="#11201a"/><rect x="296" y="130" width="11" height="11" rx="2.5" fill="#11201a"/><rect x="310" y="130" width="11" height="11" rx="2.5" fill="#11201a"/><rect x="324" y="130" width="11" height="11" rx="2.5" fill="#11201a"/><rect x="338" y="130" width="11" height="11" rx="2.5" fill="#11201a"/><rect x="352" y="130" width="11" height="11" rx="2.5" fill="#11201a"/><rect x="366" y="130" width="11" height="11" rx="2.5" fill="#11201a"/><rect x="380" y="130" width="11" height="11" rx="2.5" fill="#11201a"/><rect x="394" y="130" width="11" height="11" rx="2.5" fill="#11201a"/><rect x="408" y="130" width="11" height="11" rx="2.5" fill="#11201a"/><rect x="422" y="130" width="11" height="11" rx="2.5" fill="#11201a"/><rect x="436" y="130" width="11" height="11" rx="2.5" fill="#11201a"/><rect x="450" y="130" width="11" height="11" rx="2.5" fill="#11201a"/><rect x="464" y="130" width="11" height="11" rx="2.5" fill="#11201a"/><rect x="478" y="130" width="11" height="11" rx="2.5" fill="#11201a"/><rect x="492" y="130" width="11" height="11" rx="2.5" fill="#11201a"/><rect x="506" y="130" width="11" height="11" rx="2.5" fill="#11201a"/><rect x="520" y="130" width="11" height="11" rx="2.5" fill="#11201a"/><rect x="534" y="130" width="11" height="11" rx="2.5" fill="#11201a"/><rect x="548" y="130" width="11" height="11" rx="2.5" fill="#11201a"/><rect x="562" y="130" width="11" height="11" rx="2.5" fill="#11201a"/><rect x="576" y="130" width="11" height="11" rx="2.5" fill="#11201a"/><rect x="590" y="130" width="11" height="11" rx="2.5" fill="#11201a"/><rect x="604" y="130" width="11" height="11" rx="2.5" fill="#11201a"/><rect x="618" y="130" width="11" height="11" rx="2.5" fill="#11201a"/><rect x="632" y="130" width="11" height="11" rx="2.5" fill="#11201a"/><rect x="646" y="130" width="11" height="11" rx="2.5" fill="#11201a"/><rect x="660" y="130" width="11" height="11" rx="2.5" fill="#11201a"/><rect x="674" y="130" width="11" height="11" rx="2.5" fill="#11201a"/><rect x="688" y="130" width="11" height="11" rx="2.5" fill="#11201a"/><rect x="702" y="130" width="11" height="11" rx="2.5" fill="#11201a"/><rect x="716" y="130" width="11" height="11" rx="2.5" fill="#11201a"/><rect x="730" y="130" width="11" height="11" rx="2.5" fill="#11201a"/><rect x="744" y="130" width="11" height="11" rx="2.5" fill="#11201a"/><rect x="758" y="130" width="11" height="11" rx="2.5" fill="#11201a"/><rect x="44" y="144" width="11" height="11" rx="2.5" fill="#11201a"/><rect x="58" y="144" width="11" height="11" rx="2.5" fill="#11201a"/><rect x="72" y="144" width="11" height="11" rx="2.5" fill="#11201a"/><rect x="86" y="144" width="11" height="11" rx="2.5" fill="#11201a"/><rect x="100" y="144" width="11" height="11" rx="2.5" fill="#11201a"/><rect x="114" y="144" width="11" height="11" rx="2.5" fill="#11201a"/><rect x="128" y="144" width="11" height="11" rx="2.5" fill="#11201a"/><rect x="142" y="144" width="11" height="11" rx="2.5" fill="#11201a"/><rect x="156" y="144" width="11" height="11" rx="2.5" fill="#11201a"/><rect x="170" y="144" width="11" height="11" rx="2.5" fill="#11201a"/><rect x="184" y="144" width="11" height="11" rx="2.5" fill="#11201a"/><rect x="198" y="144" width="11" height="11" rx="2.5" fill="#11201a"/><rect x="212" y="144" width="11" height="11" rx="2.5" fill="#11201a"/><rect x="226" y="144" width="11" height="11" rx="2.5" fill="#11201a"/><rect x="240" y="144" width="11" height="11" rx="2.5" fill="#11201a"/><rect x="254" y="144" width="11" height="11" rx="2.5" fill="#11201a"/><rect x="268" y="144" width="11" height="11" rx="2.5" fill="#11201a"/><rect x="282" y="144" width="11" height="11" rx="2.5" fill="#11201a"/><rect x="296" y="144" width="11" height="11" rx="2.5" fill="#11201a"/><rect x="310" y="144" width="11" height="11" rx="2.5" fill="#11201a"/><rect x="324" y="144" width="11" height="11" rx="2.5" fill="#11201a"/><rect x="338" y="144" width="11" height="11" rx="2.5" fill="#11201a"/><rect x="352" y="144" width="11" height="11" rx="2.5" fill="#11201a"/><rect x="366" y="144" width="11" height="11" rx="2.5" fill="#11201a"/><rect x="380" y="144" width="11" height="11" rx="2.5" fill="#11201a"/><rect x="394" y="144" width="11" height="11" rx="2.5" fill="#11201a"/><rect x="408" y="144" width="11" height="11" rx="2.5" fill="#11201a"/><rect x="422" y="144" width="11" height="11" rx="2.5" fill="#11201a"/><rect x="436" y="144" width="11" height="11" rx="2.5" fill="#11201a"/><rect x="450" y="144" width="11" height="11" rx="2.5" fill="#11201a"/><rect x="464" y="144" width="11" height="11" rx="2.5" fill="#11201a"/><rect x="478" y="144" width="11" height="11" rx="2.5" fill="#11201a"/><rect x="492" y="144" width="11" height="11" rx="2.5" fill="#11201a"/><rect x="506" y="144" width="11" height="11" rx="2.5" fill="#11201a"/><rect x="520" y="144" width="11" height="11" rx="2.5" fill="#11201a"/><rect x="534" y="144" width="11" height="11" rx="2.5" fill="#11201a"/><rect x="548" y="144" width="11" height="11" rx="2.5" fill="#11201a"/><rect x="562" y="144" width="11" height="11" rx="2.5" fill="#11201a"/><rect x="576" y="144" width="11" height="11" rx="2.5" fill="#11201a"/><rect x="590" y="144" width="11" height="11" rx="2.5" fill="#11201a"/><rect x="604" y="144" width="11" height="11" rx="2.5" fill="#11201a"/><rect x="618" y="144" width="11" height="11" rx="2.5" fill="#11201a"/><rect x="632" y="144" width="11" height="11" rx="2.5" fill="#11201a"/><rect x="646" y="144" width="11" height="11" rx="2.5" fill="#11201a"/><rect x="660" y="144" width="11" height="11" rx="2.5" fill="#11201a"/><rect x="674" y="144" width="11" height="11" rx="2.5" fill="#11201a"/><rect x="688" y="144" width="11" height="11" rx="2.5" fill="#11201a"/><rect x="702" y="144" width="11" height="11" rx="2.5" fill="#11201a"/><rect x="716" y="144" width="11" height="11" rx="2.5" fill="#11201a"/><rect x="730" y="144" width="11" height="11" rx="2.5" fill="#11201a"/><rect x="744" y="144" width="11" height="11" rx="2.5" fill="#11201a"/><rect x="758" y="144" width="11" height="11" rx="2.5" fill="#11201a"/></g>

  <!-- per-cell shade reveal + the sweeping beam, clipped to the grid -->
  <g clip-path="url(#gclip)">
    <rect x="212" y="60" width="11" height="11" rx="2.5" fill="#0f3b2c" opacity="0"><animate attributeName="opacity" values="0;1;0;0" keyTimes="0;0.03;0.46;1" dur="8.0s" begin="1.569s" repeatCount="indefinite"/></rect><rect x="604" y="60" width="11" height="11" rx="2.5" fill="#0f3b2c" opacity="0"><animate attributeName="opacity" values="0;1;0;0" keyTimes="0;0.03;0.46;1" dur="8.0s" begin="5.231s" repeatCount="indefinite"/></rect><rect x="688" y="60" width="11" height="11" rx="2.5" fill="#0f3b2c" opacity="0"><animate attributeName="opacity" values="0;1;0;0" keyTimes="0;0.03;0.46;1" dur="8.0s" begin="6.015s" repeatCount="indefinite"/></rect><rect x="744" y="60" width="11" height="11" rx="2.5" fill="#0f3b2c" opacity="0"><animate attributeName="opacity" values="0;1;0;0" keyTimes="0;0.03;0.46;1" dur="8.0s" begin="6.538s" repeatCount="indefinite"/></rect><rect x="758" y="60" width="11" height="11" rx="2.5" fill="#0f3b2c" opacity="0"><animate attributeName="opacity" values="0;1;0;0" keyTimes="0;0.03;0.46;1" dur="8.0s" begin="6.669s" repeatCount="indefinite"/></rect><rect x="772" y="60" width="11" height="11" rx="2.5" fill="#0f3b2c" opacity="0"><animate attributeName="opacity" values="0;1;0;0" keyTimes="0;0.03;0.46;1" dur="8.0s" begin="6.8s" repeatCount="indefinite"/></rect><rect x="156" y="74" width="11" height="11" rx="2.5" fill="#0f3b2c" opacity="0"><animate attributeName="opacity" values="0;1;0;0" keyTimes="0;0.03;0.46;1" dur="8.0s" begin="1.046s" repeatCount="indefinite"/></rect><rect x="282" y="74" width="11" height="11" rx="2.5" fill="#0f3b2c" opacity="0"><animate attributeName="opacity" values="0;1;0;0" keyTimes="0;0.03;0.46;1" dur="8.0s" begin="2.223s" repeatCount="indefinite"/></rect><rect x="520" y="74" width="11" height="11" rx="2.5" fill="#0f3b2c" opacity="0"><animate attributeName="opacity" values="0;1;0;0" keyTimes="0;0.03;0.46;1" dur="8.0s" begin="4.446s" repeatCount="indefinite"/></rect><rect x="604" y="74" width="11" height="11" rx="2.5" fill="#0f3b2c" opacity="0"><animate attributeName="opacity" values="0;1;0;0" keyTimes="0;0.03;0.46;1" dur="8.0s" begin="5.231s" repeatCount="indefinite"/></rect><rect x="688" y="74" width="11" height="11" rx="2.5" fill="#0f3b2c" opacity="0"><animate attributeName="opacity" values="0;1;0;0" keyTimes="0;0.03;0.46;1" dur="8.0s" begin="6.015s" repeatCount="indefinite"/></rect><rect x="744" y="74" width="11" height="11" rx="2.5" fill="#11623f" opacity="0"><animate attributeName="opacity" values="0;1;0;0" keyTimes="0;0.03;0.46;1" dur="8.0s" begin="6.538s" repeatCount="indefinite"/></rect><rect x="758" y="74" width="11" height="11" rx="2.5" fill="#0f3b2c" opacity="0"><animate attributeName="opacity" values="0;1;0;0" keyTimes="0;0.03;0.46;1" dur="8.0s" begin="6.669s" repeatCount="indefinite"/></rect><rect x="772" y="74" width="11" height="11" rx="2.5" fill="#0f3b2c" opacity="0"><animate attributeName="opacity" values="0;1;0;0" keyTimes="0;0.03;0.46;1" dur="8.0s" begin="6.8s" repeatCount="indefinite"/></rect><rect x="100" y="88" width="11" height="11" rx="2.5" fill="#0f3b2c" opacity="0"><animate attributeName="opacity" values="0;1;0;0" keyTimes="0;0.03;0.46;1" dur="8.0s" begin="0.523s" repeatCount="indefinite"/></rect><rect x="282" y="88" width="11" height="11" rx="2.5" fill="#0f3b2c" opacity="0"><animate attributeName="opacity" values="0;1;0;0" keyTimes="0;0.03;0.46;1" dur="8.0s" begin="2.223s" repeatCount="indefinite"/></rect><rect x="520" y="88" width="11" height="11" rx="2.5" fill="#0f3b2c" opacity="0"><animate attributeName="opacity" values="0;1;0;0" keyTimes="0;0.03;0.46;1" dur="8.0s" begin="4.446s" repeatCount="indefinite"/></rect><rect x="562" y="88" width="11" height="11" rx="2.5" fill="#0f3b2c" opacity="0"><animate attributeName="opacity" values="0;1;0;0" keyTimes="0;0.03;0.46;1" dur="8.0s" begin="4.838s" repeatCount="indefinite"/></rect><rect x="590" y="88" width="11" height="11" rx="2.5" fill="#0f3b2c" opacity="0"><animate attributeName="opacity" values="0;1;0;0" keyTimes="0;0.03;0.46;1" dur="8.0s" begin="5.1s" repeatCount="indefinite"/></rect><rect x="618" y="88" width="11" height="11" rx="2.5" fill="#0f3b2c" opacity="0"><animate attributeName="opacity" values="0;1;0;0" keyTimes="0;0.03;0.46;1" dur="8.0s" begin="5.362s" repeatCount="indefinite"/></rect><rect x="674" y="88" width="11" height="11" rx="2.5" fill="#0f3b2c" opacity="0"><animate attributeName="opacity" values="0;1;0;0" keyTimes="0;0.03;0.46;1" dur="8.0s" begin="5.885s" repeatCount="indefinite"/></rect><rect x="716" y="88" width="11" height="11" rx="2.5" fill="#0f3b2c" opacity="0"><animate attributeName="opacity" values="0;1;0;0" keyTimes="0;0.03;0.46;1" dur="8.0s" begin="6.277s" repeatCount="indefinite"/></rect><rect x="744" y="88" width="11" height="11" rx="2.5" fill="#11623f" opacity="0"><animate attributeName="opacity" values="0;1;0;0" keyTimes="0;0.03;0.46;1" dur="8.0s" begin="6.538s" repeatCount="indefinite"/></rect><rect x="758" y="88" width="11" height="11" rx="2.5" fill="#0f3b2c" opacity="0"><animate attributeName="opacity" values="0;1;0;0" keyTimes="0;0.03;0.46;1" dur="8.0s" begin="6.669s" repeatCount="indefinite"/></rect><rect x="772" y="88" width="11" height="11" rx="2.5" fill="#0f3b2c" opacity="0"><animate attributeName="opacity" values="0;1;0;0" keyTimes="0;0.03;0.46;1" dur="8.0s" begin="6.8s" repeatCount="indefinite"/></rect><rect x="198" y="102" width="11" height="11" rx="2.5" fill="#00ff9c" opacity="0"><animate attributeName="opacity" values="0;1;0;0" keyTimes="0;0.03;0.46;1" dur="8.0s" begin="1.438s" repeatCount="indefinite"/></rect><rect x="268" y="102" width="11" height="11" rx="2.5" fill="#0f3b2c" opacity="0"><animate attributeName="opacity" values="0;1;0;0" keyTimes="0;0.03;0.46;1" dur="8.0s" begin="2.092s" repeatCount="indefinite"/></rect><rect x="576" y="102" width="11" height="11" rx="2.5" fill="#0f3b2c" opacity="0"><animate attributeName="opacity" values="0;1;0;0" keyTimes="0;0.03;0.46;1" dur="8.0s" begin="4.969s" repeatCount="indefinite"/></rect><rect x="688" y="102" width="11" height="11" rx="2.5" fill="#0f3b2c" opacity="0"><animate attributeName="opacity" values="0;1;0;0" keyTimes="0;0.03;0.46;1" dur="8.0s" begin="6.015s" repeatCount="indefinite"/></rect><rect x="702" y="102" width="11" height="11" rx="2.5" fill="#0f3b2c" opacity="0"><animate attributeName="opacity" values="0;1;0;0" keyTimes="0;0.03;0.46;1" dur="8.0s" begin="6.146s" repeatCount="indefinite"/></rect><rect x="744" y="102" width="11" height="11" rx="2.5" fill="#0f3b2c" opacity="0"><animate attributeName="opacity" values="0;1;0;0" keyTimes="0;0.03;0.46;1" dur="8.0s" begin="6.538s" repeatCount="indefinite"/></rect><rect x="758" y="102" width="11" height="11" rx="2.5" fill="#0f3b2c" opacity="0"><animate attributeName="opacity" values="0;1;0;0" keyTimes="0;0.03;0.46;1" dur="8.0s" begin="6.669s" repeatCount="indefinite"/></rect><rect x="198" y="116" width="11" height="11" rx="2.5" fill="#11623f" opacity="0"><animate attributeName="opacity" values="0;1;0;0" keyTimes="0;0.03;0.46;1" dur="8.0s" begin="1.438s" repeatCount="indefinite"/></rect><rect x="268" y="116" width="11" height="11" rx="2.5" fill="#159f63" opacity="0"><animate attributeName="opacity" values="0;1;0;0" keyTimes="0;0.03;0.46;1" dur="8.0s" begin="2.092s" repeatCount="indefinite"/></rect><rect x="534" y="116" width="11" height="11" rx="2.5" fill="#0f3b2c" opacity="0"><animate attributeName="opacity" values="0;1;0;0" keyTimes="0;0.03;0.46;1" dur="8.0s" begin="4.577s" repeatCount="indefinite"/></rect><rect x="576" y="116" width="11" height="11" rx="2.5" fill="#0f3b2c" opacity="0"><animate attributeName="opacity" values="0;1;0;0" keyTimes="0;0.03;0.46;1" dur="8.0s" begin="4.969s" repeatCount="indefinite"/></rect><rect x="674" y="116" width="11" height="11" rx="2.5" fill="#0f3b2c" opacity="0"><animate attributeName="opacity" values="0;1;0;0" keyTimes="0;0.03;0.46;1" dur="8.0s" begin="5.885s" repeatCount="indefinite"/></rect><rect x="688" y="116" width="11" height="11" rx="2.5" fill="#0f3b2c" opacity="0"><animate attributeName="opacity" values="0;1;0;0" keyTimes="0;0.03;0.46;1" dur="8.0s" begin="6.015s" repeatCount="indefinite"/></rect><rect x="702" y="116" width="11" height="11" rx="2.5" fill="#0f3b2c" opacity="0"><animate attributeName="opacity" values="0;1;0;0" keyTimes="0;0.03;0.46;1" dur="8.0s" begin="6.146s" repeatCount="indefinite"/></rect><rect x="716" y="116" width="11" height="11" rx="2.5" fill="#0f3b2c" opacity="0"><animate attributeName="opacity" values="0;1;0;0" keyTimes="0;0.03;0.46;1" dur="8.0s" begin="6.277s" repeatCount="indefinite"/></rect><rect x="744" y="116" width="11" height="11" rx="2.5" fill="#0f3b2c" opacity="0"><animate attributeName="opacity" values="0;1;0;0" keyTimes="0;0.03;0.46;1" dur="8.0s" begin="6.538s" repeatCount="indefinite"/></rect><rect x="758" y="116" width="11" height="11" rx="2.5" fill="#159f63" opacity="0"><animate attributeName="opacity" values="0;1;0;0" keyTimes="0;0.03;0.46;1" dur="8.0s" begin="6.669s" repeatCount="indefinite"/></rect><rect x="170" y="130" width="11" height="11" rx="2.5" fill="#0f3b2c" opacity="0"><animate attributeName="opacity" values="0;1;0;0" keyTimes="0;0.03;0.46;1" dur="8.0s" begin="1.177s" repeatCount="indefinite"/></rect><rect x="268" y="130" width="11" height="11" rx="2.5" fill="#0f3b2c" opacity="0"><animate attributeName="opacity" values="0;1;0;0" keyTimes="0;0.03;0.46;1" dur="8.0s" begin="2.092s" repeatCount="indefinite"/></rect><rect x="534" y="130" width="11" height="11" rx="2.5" fill="#11623f" opacity="0"><animate attributeName="opacity" values="0;1;0;0" keyTimes="0;0.03;0.46;1" dur="8.0s" begin="4.577s" repeatCount="indefinite"/></rect><rect x="688" y="130" width="11" height="11" rx="2.5" fill="#0f3b2c" opacity="0"><animate attributeName="opacity" values="0;1;0;0" keyTimes="0;0.03;0.46;1" dur="8.0s" begin="6.015s" repeatCount="indefinite"/></rect><rect x="744" y="130" width="11" height="11" rx="2.5" fill="#0f3b2c" opacity="0"><animate attributeName="opacity" values="0;1;0;0" keyTimes="0;0.03;0.46;1" dur="8.0s" begin="6.538s" repeatCount="indefinite"/></rect><rect x="758" y="130" width="11" height="11" rx="2.5" fill="#00ff9c" opacity="0"><animate attributeName="opacity" values="0;1;0;0" keyTimes="0;0.03;0.46;1" dur="8.0s" begin="6.669s" repeatCount="indefinite"/></rect><rect x="156" y="144" width="11" height="11" rx="2.5" fill="#0f3b2c" opacity="0"><animate attributeName="opacity" values="0;1;0;0" keyTimes="0;0.03;0.46;1" dur="8.0s" begin="1.046s" repeatCount="indefinite"/></rect><rect x="170" y="144" width="11" height="11" rx="2.5" fill="#0f3b2c" opacity="0"><animate attributeName="opacity" values="0;1;0;0" keyTimes="0;0.03;0.46;1" dur="8.0s" begin="1.177s" repeatCount="indefinite"/></rect><rect x="268" y="144" width="11" height="11" rx="2.5" fill="#0f3b2c" opacity="0"><animate attributeName="opacity" values="0;1;0;0" keyTimes="0;0.03;0.46;1" dur="8.0s" begin="2.092s" repeatCount="indefinite"/></rect><rect x="338" y="144" width="11" height="11" rx="2.5" fill="#0f3b2c" opacity="0"><animate attributeName="opacity" values="0;1;0;0" keyTimes="0;0.03;0.46;1" dur="8.0s" begin="2.746s" repeatCount="indefinite"/></rect><rect x="688" y="144" width="11" height="11" rx="2.5" fill="#0f3b2c" opacity="0"><animate attributeName="opacity" values="0;1;0;0" keyTimes="0;0.03;0.46;1" dur="8.0s" begin="6.015s" repeatCount="indefinite"/></rect><rect x="716" y="144" width="11" height="11" rx="2.5" fill="#0f3b2c" opacity="0"><animate attributeName="opacity" values="0;1;0;0" keyTimes="0;0.03;0.46;1" dur="8.0s" begin="6.277s" repeatCount="indefinite"/></rect><rect x="744" y="144" width="11" height="11" rx="2.5" fill="#0f3b2c" opacity="0"><animate attributeName="opacity" values="0;1;0;0" keyTimes="0;0.03;0.46;1" dur="8.0s" begin="6.538s" repeatCount="indefinite"/></rect><rect x="758" y="144" width="11" height="11" rx="2.5" fill="#11623f" opacity="0"><animate attributeName="opacity" values="0;1;0;0" keyTimes="0;0.03;0.46;1" dur="8.0s" begin="6.669s" repeatCount="indefinite"/></rect>
    <g>
      <animateTransform attributeName="transform" type="translate"
        values="0 0;728 0;728 0" keyTimes="0;0.85;1" dur="8.0s" repeatCount="indefinite"/>
      <animate attributeName="opacity" values="0.9;0.9;0;0" keyTimes="0;0.85;0.86;1" dur="8.0s" repeatCount="indefinite"/>
      <rect x="35" y="56" width="20" height="100" fill="url(#beam)"/>
      <line x1="45" y1="56" x2="45" y2="156" stroke="#d8fff0" stroke-width="1.4" opacity="0.9"/>
    </g>
  </g>

  <!-- scanlines + hud corner ticks -->
  <rect x="40" y="56" width="747" height="102" fill="url(#crt)"/>
  <path d="M34,68 L34,54 L48,54" fill="none" stroke="#00ff9c" stroke-opacity="0.5"/>
  <path d="M793,146 L793,160 L779,160" fill="none" stroke="#00ff9c" stroke-opacity="0.5"/>

  <text x="606" y="194" font-size="10" fill="#5c6b64" font-family="'SFMono-Regular',ui-monospace,'JetBrains Mono','Fira Code','Cascadia Code',Consolas,'Liberation Mono',Menlo,monospace">less</text><rect x="636" y="185" width="11" height="11" rx="2" fill="#0f3b2c"/><rect x="651" y="185" width="11" height="11" rx="2" fill="#11623f"/><rect x="666" y="185" width="11" height="11" rx="2" fill="#159f63"/><rect x="681" y="185" width="11" height="11" rx="2" fill="#00ff9c"/><text x="700" y="194" font-size="10" fill="#5c6b64" font-family="'SFMono-Regular',ui-monospace,'JetBrains Mono','Fira Code','Cascadia Code',Consolas,'Liberation Mono',Menlo,monospace">more</text>
</svg>
