<svg xmlns="http://www.w3.org/2000/svg" width="880" height="184" viewBox="0 0 880 184" role="img" aria-label="contribution radar: 35 active days">
  <defs>
    <linearGradient id="beam2" x1="0" x2="1" y1="0" y2="0">
      <stop offset="0" stop-color="#00ff9c" stop-opacity="0"/>
      <stop offset="0.5" stop-color="#00ff9c" stop-opacity="0.85"/>
      <stop offset="1" stop-color="#00ff9c" stop-opacity="0"/>
    </linearGradient>
    <clipPath id="gridclip">
      <rect x="22" y="54" width="799" height="109"/>
    </clipPath>
    <style>
      .sweep { animation:scan 6s linear infinite; }
      @keyframes scan { from{transform:translateX(-40px)} to{transform:translateX(855px)} }
    </style>
  </defs>

  <rect x="1" y="1" width="878" height="182" rx="10" fill="#0a0e0d" stroke="#16241e" stroke-width="1.5"/>
  <rect x="1" y="1" width="878" height="34" rx="10" fill="#0d1411"/>
  <rect x="1" y="24" width="878" height="11" fill="#0d1411"/>
  <line x1="1" y1="35" x2="879" y2="35" stroke="#16241e" stroke-width="1.5"/>
  <circle cx="22" cy="18" r="5" fill="#ff5f56" opacity="0.85"/>
  <circle cx="40" cy="18" r="5" fill="#febc2e" opacity="0.85"/>
  <circle cx="58" cy="18" r="5" fill="#27c93f" opacity="0.85"/>
  <text x="78" y="22" font-size="12" fill="#5c6b64" font-family="'SFMono-Regular',ui-monospace,'JetBrains Mono','Fira Code','Cascadia Code',Consolas,'Liberation Mono',Menlo,monospace">~/contrib $ ./scan --year</text>
  <text x="864" y="22" text-anchor="end" font-size="12" fill="#5c6b64" font-family="'SFMono-Regular',ui-monospace,'JetBrains Mono','Fira Code','Cascadia Code',Consolas,'Liberation Mono',Menlo,monospace">35 active days</text>

  <g><rect x="24" y="56" width="12" height="12" rx="2.5" fill="#11201a"/><rect x="39" y="56" width="12" height="12" rx="2.5" fill="#11201a"/><rect x="54" y="56" width="12" height="12" rx="2.5" fill="#11201a"/><rect x="69" y="56" width="12" height="12" rx="2.5" fill="#11201a"/><rect x="84" y="56" width="12" height="12" rx="2.5" fill="#11201a"/><rect x="99" y="56" width="12" height="12" rx="2.5" fill="#11201a"/><rect x="114" y="56" width="12" height="12" rx="2.5" fill="#11201a"/><rect x="129" y="56" width="12" height="12" rx="2.5" fill="#11201a"/><rect x="144" y="56" width="12" height="12" rx="2.5" fill="#11201a"/><rect x="159" y="56" width="12" height="12" rx="2.5" fill="#11201a"/><rect x="174" y="56" width="12" height="12" rx="2.5" fill="#11201a"/><rect x="189" y="56" width="12" height="12" rx="2.5" fill="#11201a"/><rect x="204" y="56" width="12" height="12" rx="2.5" fill="#11201a"/><rect x="219" y="56" width="12" height="12" rx="2.5" fill="#11201a"/><rect x="234" y="56" width="12" height="12" rx="2.5" fill="#0f3b2c"/><rect x="249" y="56" width="12" height="12" rx="2.5" fill="#11201a"/><rect x="264" y="56" width="12" height="12" rx="2.5" fill="#11201a"/><rect x="279" y="56" width="12" height="12" rx="2.5" fill="#11201a"/><rect x="294" y="56" width="12" height="12" rx="2.5" fill="#11201a"/><rect x="309" y="56" width="12" height="12" rx="2.5" fill="#11201a"/><rect x="324" y="56" width="12" height="12" rx="2.5" fill="#11201a"/><rect x="339" y="56" width="12" height="12" rx="2.5" fill="#11201a"/><rect x="354" y="56" width="12" height="12" rx="2.5" fill="#11201a"/><rect x="369" y="56" width="12" height="12" rx="2.5" fill="#11201a"/><rect x="384" y="56" width="12" height="12" rx="2.5" fill="#11201a"/><rect x="399" y="56" width="12" height="12" rx="2.5" fill="#11201a"/><rect x="414" y="56" width="12" height="12" rx="2.5" fill="#11201a"/><rect x="429" y="56" width="12" height="12" rx="2.5" fill="#11201a"/><rect x="444" y="56" width="12" height="12" rx="2.5" fill="#11201a"/><rect x="459" y="56" width="12" height="12" rx="2.5" fill="#11201a"/><rect x="474" y="56" width="12" height="12" rx="2.5" fill="#11201a"/><rect x="489" y="56" width="12" height="12" rx="2.5" fill="#11201a"/><rect x="504" y="56" width="12" height="12" rx="2.5" fill="#11201a"/><rect x="519" y="56" width="12" height="12" rx="2.5" fill="#11201a"/><rect x="534" y="56" width="12" height="12" rx="2.5" fill="#11201a"/><rect x="549" y="56" width="12" height="12" rx="2.5" fill="#11201a"/><rect x="564" y="56" width="12" height="12" rx="2.5" fill="#11201a"/><rect x="579" y="56" width="12" height="12" rx="2.5" fill="#11201a"/><rect x="594" y="56" width="12" height="12" rx="2.5" fill="#11201a"/><rect x="609" y="56" width="12" height="12" rx="2.5" fill="#11201a"/><rect x="624" y="56" width="12" height="12" rx="2.5" fill="#11201a"/><rect x="639" y="56" width="12" height="12" rx="2.5" fill="#11201a"/><rect x="654" y="56" width="12" height="12" rx="2.5" fill="#11201a"/><rect x="669" y="56" width="12" height="12" rx="2.5" fill="#11201a"/><rect x="684" y="56" width="12" height="12" rx="2.5" fill="#11201a"/><rect x="699" y="56" width="12" height="12" rx="2.5" fill="#11201a"/><rect x="714" y="56" width="12" height="12" rx="2.5" fill="#11201a"/><rect x="729" y="56" width="12" height="12" rx="2.5" fill="#11201a"/><rect x="744" y="56" width="12" height="12" rx="2.5" fill="#159f63"/><rect x="759" y="56" width="12" height="12" rx="2.5" fill="#11201a"/><rect x="774" y="56" width="12" height="12" rx="2.5" fill="#11201a"/><rect x="789" y="56" width="12" height="12" rx="2.5" fill="#11201a"/><rect x="804" y="56" width="12" height="12" rx="2.5" fill="#11623f"/><rect x="24" y="71" width="12" height="12" rx="2.5" fill="#11201a"/><rect x="39" y="71" width="12" height="12" rx="2.5" fill="#11201a"/><rect x="54" y="71" width="12" height="12" rx="2.5" fill="#11201a"/><rect x="69" y="71" width="12" height="12" rx="2.5" fill="#11201a"/><rect x="84" y="71" width="12" height="12" rx="2.5" fill="#11201a"/><rect x="99" y="71" width="12" height="12" rx="2.5" fill="#11201a"/><rect x="114" y="71" width="12" height="12" rx="2.5" fill="#11201a"/><rect x="129" y="71" width="12" height="12" rx="2.5" fill="#11201a"/><rect x="144" y="71" width="12" height="12" rx="2.5" fill="#11201a"/><rect x="159" y="71" width="12" height="12" rx="2.5" fill="#11201a"/><rect x="174" y="71" width="12" height="12" rx="2.5" fill="#0f3b2c"/><rect x="189" y="71" width="12" height="12" rx="2.5" fill="#11201a"/><rect x="204" y="71" width="12" height="12" rx="2.5" fill="#11201a"/><rect x="219" y="71" width="12" height="12" rx="2.5" fill="#11201a"/><rect x="234" y="71" width="12" height="12" rx="2.5" fill="#11201a"/><rect x="249" y="71" width="12" height="12" rx="2.5" fill="#11201a"/><rect x="264" y="71" width="12" height="12" rx="2.5" fill="#11201a"/><rect x="279" y="71" width="12" height="12" rx="2.5" fill="#11201a"/><rect x="294" y="71" width="12" height="12" rx="2.5" fill="#11201a"/><rect x="309" y="71" width="12" height="12" rx="2.5" fill="#0f3b2c"/><rect x="324" y="71" width="12" height="12" rx="2.5" fill="#11201a"/><rect x="339" y="71" width="12" height="12" rx="2.5" fill="#11201a"/><rect x="354" y="71" width="12" height="12" rx="2.5" fill="#11201a"/><rect x="369" y="71" width="12" height="12" rx="2.5" fill="#11201a"/><rect x="384" y="71" width="12" height="12" rx="2.5" fill="#11201a"/><rect x="399" y="71" width="12" height="12" rx="2.5" fill="#11201a"/><rect x="414" y="71" width="12" height="12" rx="2.5" fill="#11201a"/><rect x="429" y="71" width="12" height="12" rx="2.5" fill="#11201a"/><rect x="444" y="71" width="12" height="12" rx="2.5" fill="#11201a"/><rect x="459" y="71" width="12" height="12" rx="2.5" fill="#11201a"/><rect x="474" y="71" width="12" height="12" rx="2.5" fill="#11201a"/><rect x="489" y="71" width="12" height="12" rx="2.5" fill="#11201a"/><rect x="504" y="71" width="12" height="12" rx="2.5" fill="#11201a"/><rect x="519" y="71" width="12" height="12" rx="2.5" fill="#11201a"/><rect x="534" y="71" width="12" height="12" rx="2.5" fill="#11201a"/><rect x="549" y="71" width="12" height="12" rx="2.5" fill="#11201a"/><rect x="564" y="71" width="12" height="12" rx="2.5" fill="#11201a"/><rect x="579" y="71" width="12" height="12" rx="2.5" fill="#11201a"/><rect x="594" y="71" width="12" height="12" rx="2.5" fill="#11201a"/><rect x="609" y="71" width="12" height="12" rx="2.5" fill="#11201a"/><rect x="624" y="71" width="12" height="12" rx="2.5" fill="#11201a"/><rect x="639" y="71" width="12" height="12" rx="2.5" fill="#11201a"/><rect x="654" y="71" width="12" height="12" rx="2.5" fill="#0f3b2c"/><rect x="669" y="71" width="12" height="12" rx="2.5" fill="#11201a"/><rect x="684" y="71" width="12" height="12" rx="2.5" fill="#11201a"/><rect x="699" y="71" width="12" height="12" rx="2.5" fill="#11201a"/><rect x="714" y="71" width="12" height="12" rx="2.5" fill="#11201a"/><rect x="729" y="71" width="12" height="12" rx="2.5" fill="#11201a"/><rect x="744" y="71" width="12" height="12" rx="2.5" fill="#0f3b2c"/><rect x="759" y="71" width="12" height="12" rx="2.5" fill="#11201a"/><rect x="774" y="71" width="12" height="12" rx="2.5" fill="#11201a"/><rect x="789" y="71" width="12" height="12" rx="2.5" fill="#11201a"/><rect x="804" y="71" width="12" height="12" rx="2.5" fill="#11201a"/><rect x="24" y="86" width="12" height="12" rx="2.5" fill="#11201a"/><rect x="39" y="86" width="12" height="12" rx="2.5" fill="#11201a"/><rect x="54" y="86" width="12" height="12" rx="2.5" fill="#11201a"/><rect x="69" y="86" width="12" height="12" rx="2.5" fill="#11201a"/><rect x="84" y="86" width="12" height="12" rx="2.5" fill="#11201a"/><rect x="99" y="86" width="12" height="12" rx="2.5" fill="#11201a"/><rect x="114" y="86" width="12" height="12" rx="2.5" fill="#0f3b2c"/><rect x="129" y="86" width="12" height="12" rx="2.5" fill="#11201a"/><rect x="144" y="86" width="12" height="12" rx="2.5" fill="#11201a"/><rect x="159" y="86" width="12" height="12" rx="2.5" fill="#11201a"/><rect x="174" y="86" width="12" height="12" rx="2.5" fill="#11201a"/><rect x="189" y="86" width="12" height="12" rx="2.5" fill="#11201a"/><rect x="204" y="86" width="12" height="12" rx="2.5" fill="#11201a"/><rect x="219" y="86" width="12" height="12" rx="2.5" fill="#11201a"/><rect x="234" y="86" width="12" height="12" rx="2.5" fill="#11201a"/><rect x="249" y="86" width="12" height="12" rx="2.5" fill="#11201a"/><rect x="264" y="86" width="12" height="12" rx="2.5" fill="#11201a"/><rect x="279" y="86" width="12" height="12" rx="2.5" fill="#11201a"/><rect x="294" y="86" width="12" height="12" rx="2.5" fill="#11201a"/><rect x="309" y="86" width="12" height="12" rx="2.5" fill="#0f3b2c"/><rect x="324" y="86" width="12" height="12" rx="2.5" fill="#11201a"/><rect x="339" y="86" width="12" height="12" rx="2.5" fill="#11201a"/><rect x="354" y="86" width="12" height="12" rx="2.5" fill="#11201a"/><rect x="369" y="86" width="12" height="12" rx="2.5" fill="#11201a"/><rect x="384" y="86" width="12" height="12" rx="2.5" fill="#11201a"/><rect x="399" y="86" width="12" height="12" rx="2.5" fill="#11201a"/><rect x="414" y="86" width="12" height="12" rx="2.5" fill="#11201a"/><rect x="429" y="86" width="12" height="12" rx="2.5" fill="#11201a"/><rect x="444" y="86" width="12" height="12" rx="2.5" fill="#11201a"/><rect x="459" y="86" width="12" height="12" rx="2.5" fill="#11201a"/><rect x="474" y="86" width="12" height="12" rx="2.5" fill="#11201a"/><rect x="489" y="86" width="12" height="12" rx="2.5" fill="#11201a"/><rect x="504" y="86" width="12" height="12" rx="2.5" fill="#11201a"/><rect x="519" y="86" width="12" height="12" rx="2.5" fill="#11201a"/><rect x="534" y="86" width="12" height="12" rx="2.5" fill="#11201a"/><rect x="549" y="86" width="12" height="12" rx="2.5" fill="#11201a"/><rect x="564" y="86" width="12" height="12" rx="2.5" fill="#0f3b2c"/><rect x="579" y="86" width="12" height="12" rx="2.5" fill="#11201a"/><rect x="594" y="86" width="12" height="12" rx="2.5" fill="#11201a"/><rect x="609" y="86" width="12" height="12" rx="2.5" fill="#0f3b2c"/><rect x="624" y="86" width="12" height="12" rx="2.5" fill="#11201a"/><rect x="639" y="86" width="12" height="12" rx="2.5" fill="#11201a"/><rect x="654" y="86" width="12" height="12" rx="2.5" fill="#11201a"/><rect x="669" y="86" width="12" height="12" rx="2.5" fill="#11623f"/><rect x="684" y="86" width="12" height="12" rx="2.5" fill="#11201a"/><rect x="699" y="86" width="12" height="12" rx="2.5" fill="#11201a"/><rect x="714" y="86" width="12" height="12" rx="2.5" fill="#11201a"/><rect x="729" y="86" width="12" height="12" rx="2.5" fill="#0f3b2c"/><rect x="744" y="86" width="12" height="12" rx="2.5" fill="#11201a"/><rect x="759" y="86" width="12" height="12" rx="2.5" fill="#11201a"/><rect x="774" y="86" width="12" height="12" rx="2.5" fill="#11623f"/><rect x="789" y="86" width="12" height="12" rx="2.5" fill="#11201a"/><rect x="24" y="101" width="12" height="12" rx="2.5" fill="#11201a"/><rect x="39" y="101" width="12" height="12" rx="2.5" fill="#11201a"/><rect x="54" y="101" width="12" height="12" rx="2.5" fill="#11201a"/><rect x="69" y="101" width="12" height="12" rx="2.5" fill="#11201a"/><rect x="84" y="101" width="12" height="12" rx="2.5" fill="#11201a"/><rect x="99" y="101" width="12" height="12" rx="2.5" fill="#11201a"/><rect x="114" y="101" width="12" height="12" rx="2.5" fill="#11201a"/><rect x="129" y="101" width="12" height="12" rx="2.5" fill="#11201a"/><rect x="144" y="101" width="12" height="12" rx="2.5" fill="#11201a"/><rect x="159" y="101" width="12" height="12" rx="2.5" fill="#11201a"/><rect x="174" y="101" width="12" height="12" rx="2.5" fill="#11201a"/><rect x="189" y="101" width="12" height="12" rx="2.5" fill="#11201a"/><rect x="204" y="101" width="12" height="12" rx="2.5" fill="#11201a"/><rect x="219" y="101" width="12" height="12" rx="2.5" fill="#00ff9c"/><rect x="234" y="101" width="12" height="12" rx="2.5" fill="#11201a"/><rect x="249" y="101" width="12" height="12" rx="2.5" fill="#11201a"/><rect x="264" y="101" width="12" height="12" rx="2.5" fill="#11201a"/><rect x="279" y="101" width="12" height="12" rx="2.5" fill="#11201a"/><rect x="294" y="101" width="12" height="12" rx="2.5" fill="#0f3b2c"/><rect x="309" y="101" width="12" height="12" rx="2.5" fill="#11201a"/><rect x="324" y="101" width="12" height="12" rx="2.5" fill="#11201a"/><rect x="339" y="101" width="12" height="12" rx="2.5" fill="#11201a"/><rect x="354" y="101" width="12" height="12" rx="2.5" fill="#11201a"/><rect x="369" y="101" width="12" height="12" rx="2.5" fill="#11201a"/><rect x="384" y="101" width="12" height="12" rx="2.5" fill="#11201a"/><rect x="399" y="101" width="12" height="12" rx="2.5" fill="#11201a"/><rect x="414" y="101" width="12" height="12" rx="2.5" fill="#11201a"/><rect x="429" y="101" width="12" height="12" rx="2.5" fill="#11201a"/><rect x="444" y="101" width="12" height="12" rx="2.5" fill="#11201a"/><rect x="459" y="101" width="12" height="12" rx="2.5" fill="#11201a"/><rect x="474" y="101" width="12" height="12" rx="2.5" fill="#11201a"/><rect x="489" y="101" width="12" height="12" rx="2.5" fill="#11201a"/><rect x="504" y="101" width="12" height="12" rx="2.5" fill="#11201a"/><rect x="519" y="101" width="12" height="12" rx="2.5" fill="#11201a"/><rect x="534" y="101" width="12" height="12" rx="2.5" fill="#11201a"/><rect x="549" y="101" width="12" height="12" rx="2.5" fill="#11201a"/><rect x="564" y="101" width="12" height="12" rx="2.5" fill="#11201a"/><rect x="579" y="101" width="12" height="12" rx="2.5" fill="#11201a"/><rect x="594" y="101" width="12" height="12" rx="2.5" fill="#11201a"/><rect x="609" y="101" width="12" height="12" rx="2.5" fill="#11201a"/><rect x="624" y="101" width="12" height="12" rx="2.5" fill="#0f3b2c"/><rect x="639" y="101" width="12" height="12" rx="2.5" fill="#11201a"/><rect x="654" y="101" width="12" height="12" rx="2.5" fill="#11201a"/><rect x="669" y="101" width="12" height="12" rx="2.5" fill="#11201a"/><rect x="684" y="101" width="12" height="12" rx="2.5" fill="#11201a"/><rect x="699" y="101" width="12" height="12" rx="2.5" fill="#11201a"/><rect x="714" y="101" width="12" height="12" rx="2.5" fill="#11201a"/><rect x="729" y="101" width="12" height="12" rx="2.5" fill="#11201a"/><rect x="744" y="101" width="12" height="12" rx="2.5" fill="#0f3b2c"/><rect x="759" y="101" width="12" height="12" rx="2.5" fill="#0f3b2c"/><rect x="774" y="101" width="12" height="12" rx="2.5" fill="#11201a"/><rect x="789" y="101" width="12" height="12" rx="2.5" fill="#11201a"/><rect x="24" y="116" width="12" height="12" rx="2.5" fill="#11201a"/><rect x="39" y="116" width="12" height="12" rx="2.5" fill="#11201a"/><rect x="54" y="116" width="12" height="12" rx="2.5" fill="#11201a"/><rect x="69" y="116" width="12" height="12" rx="2.5" fill="#11201a"/><rect x="84" y="116" width="12" height="12" rx="2.5" fill="#11201a"/><rect x="99" y="116" width="12" height="12" rx="2.5" fill="#11201a"/><rect x="114" y="116" width="12" height="12" rx="2.5" fill="#11201a"/><rect x="129" y="116" width="12" height="12" rx="2.5" fill="#11201a"/><rect x="144" y="116" width="12" height="12" rx="2.5" fill="#11201a"/><rect x="159" y="116" width="12" height="12" rx="2.5" fill="#11201a"/><rect x="174" y="116" width="12" height="12" rx="2.5" fill="#11201a"/><rect x="189" y="116" width="12" height="12" rx="2.5" fill="#11201a"/><rect x="204" y="116" width="12" height="12" rx="2.5" fill="#11201a"/><rect x="219" y="116" width="12" height="12" rx="2.5" fill="#00ff9c"/><rect x="234" y="116" width="12" height="12" rx="2.5" fill="#11201a"/><rect x="249" y="116" width="12" height="12" rx="2.5" fill="#11201a"/><rect x="264" y="116" width="12" height="12" rx="2.5" fill="#11201a"/><rect x="279" y="116" width="12" height="12" rx="2.5" fill="#11201a"/><rect x="294" y="116" width="12" height="12" rx="2.5" fill="#00ff9c"/><rect x="309" y="116" width="12" height="12" rx="2.5" fill="#11201a"/><rect x="324" y="116" width="12" height="12" rx="2.5" fill="#11201a"/><rect x="339" y="116" width="12" height="12" rx="2.5" fill="#11201a"/><rect x="354" y="116" width="12" height="12" rx="2.5" fill="#11201a"/><rect x="369" y="116" width="12" height="12" rx="2.5" fill="#11201a"/><rect x="384" y="116" width="12" height="12" rx="2.5" fill="#11201a"/><rect x="399" y="116" width="12" height="12" rx="2.5" fill="#11201a"/><rect x="414" y="116" width="12" height="12" rx="2.5" fill="#11201a"/><rect x="429" y="116" width="12" height="12" rx="2.5" fill="#11201a"/><rect x="444" y="116" width="12" height="12" rx="2.5" fill="#11201a"/><rect x="459" y="116" width="12" height="12" rx="2.5" fill="#11201a"/><rect x="474" y="116" width="12" height="12" rx="2.5" fill="#11201a"/><rect x="489" y="116" width="12" height="12" rx="2.5" fill="#11201a"/><rect x="504" y="116" width="12" height="12" rx="2.5" fill="#11201a"/><rect x="519" y="116" width="12" height="12" rx="2.5" fill="#11201a"/><rect x="534" y="116" width="12" height="12" rx="2.5" fill="#11201a"/><rect x="549" y="116" width="12" height="12" rx="2.5" fill="#11201a"/><rect x="564" y="116" width="12" height="12" rx="2.5" fill="#11201a"/><rect x="579" y="116" width="12" height="12" rx="2.5" fill="#0f3b2c"/><rect x="594" y="116" width="12" height="12" rx="2.5" fill="#11201a"/><rect x="609" y="116" width="12" height="12" rx="2.5" fill="#11201a"/><rect x="624" y="116" width="12" height="12" rx="2.5" fill="#0f3b2c"/><rect x="639" y="116" width="12" height="12" rx="2.5" fill="#11201a"/><rect x="654" y="116" width="12" height="12" rx="2.5" fill="#11201a"/><rect x="669" y="116" width="12" height="12" rx="2.5" fill="#11201a"/><rect x="684" y="116" width="12" height="12" rx="2.5" fill="#11201a"/><rect x="699" y="116" width="12" height="12" rx="2.5" fill="#11201a"/><rect x="714" y="116" width="12" height="12" rx="2.5" fill="#11201a"/><rect x="729" y="116" width="12" height="12" rx="2.5" fill="#0f3b2c"/><rect x="744" y="116" width="12" height="12" rx="2.5" fill="#11623f"/><rect x="759" y="116" width="12" height="12" rx="2.5" fill="#0f3b2c"/><rect x="774" y="116" width="12" height="12" rx="2.5" fill="#0f3b2c"/><rect x="789" y="116" width="12" height="12" rx="2.5" fill="#11201a"/><rect x="24" y="131" width="12" height="12" rx="2.5" fill="#11201a"/><rect x="39" y="131" width="12" height="12" rx="2.5" fill="#11201a"/><rect x="54" y="131" width="12" height="12" rx="2.5" fill="#11201a"/><rect x="69" y="131" width="12" height="12" rx="2.5" fill="#11201a"/><rect x="84" y="131" width="12" height="12" rx="2.5" fill="#11201a"/><rect x="99" y="131" width="12" height="12" rx="2.5" fill="#11201a"/><rect x="114" y="131" width="12" height="12" rx="2.5" fill="#11201a"/><rect x="129" y="131" width="12" height="12" rx="2.5" fill="#11201a"/><rect x="144" y="131" width="12" height="12" rx="2.5" fill="#11201a"/><rect x="159" y="131" width="12" height="12" rx="2.5" fill="#11201a"/><rect x="174" y="131" width="12" height="12" rx="2.5" fill="#11201a"/><rect x="189" y="131" width="12" height="12" rx="2.5" fill="#0f3b2c"/><rect x="204" y="131" width="12" height="12" rx="2.5" fill="#11201a"/><rect x="219" y="131" width="12" height="12" rx="2.5" fill="#11201a"/><rect x="234" y="131" width="12" height="12" rx="2.5" fill="#11201a"/><rect x="249" y="131" width="12" height="12" rx="2.5" fill="#11201a"/><rect x="264" y="131" width="12" height="12" rx="2.5" fill="#11201a"/><rect x="279" y="131" width="12" height="12" rx="2.5" fill="#11201a"/><rect x="294" y="131" width="12" height="12" rx="2.5" fill="#0f3b2c"/><rect x="309" y="131" width="12" height="12" rx="2.5" fill="#11201a"/><rect x="324" y="131" width="12" height="12" rx="2.5" fill="#11201a"/><rect x="339" y="131" width="12" height="12" rx="2.5" fill="#11201a"/><rect x="354" y="131" width="12" height="12" rx="2.5" fill="#11201a"/><rect x="369" y="131" width="12" height="12" rx="2.5" fill="#11201a"/><rect x="384" y="131" width="12" height="12" rx="2.5" fill="#11201a"/><rect x="399" y="131" width="12" height="12" rx="2.5" fill="#11201a"/><rect x="414" y="131" width="12" height="12" rx="2.5" fill="#11201a"/><rect x="429" y="131" width="12" height="12" rx="2.5" fill="#11201a"/><rect x="444" y="131" width="12" height="12" rx="2.5" fill="#11201a"/><rect x="459" y="131" width="12" height="12" rx="2.5" fill="#11201a"/><rect x="474" y="131" width="12" height="12" rx="2.5" fill="#11201a"/><rect x="489" y="131" width="12" height="12" rx="2.5" fill="#11201a"/><rect x="504" y="131" width="12" height="12" rx="2.5" fill="#11201a"/><rect x="519" y="131" width="12" height="12" rx="2.5" fill="#11201a"/><rect x="534" y="131" width="12" height="12" rx="2.5" fill="#11201a"/><rect x="549" y="131" width="12" height="12" rx="2.5" fill="#11201a"/><rect x="564" y="131" width="12" height="12" rx="2.5" fill="#11201a"/><rect x="579" y="131" width="12" height="12" rx="2.5" fill="#00ff9c"/><rect x="594" y="131" width="12" height="12" rx="2.5" fill="#11201a"/><rect x="609" y="131" width="12" height="12" rx="2.5" fill="#11201a"/><rect x="624" y="131" width="12" height="12" rx="2.5" fill="#11201a"/><rect x="639" y="131" width="12" height="12" rx="2.5" fill="#11201a"/><rect x="654" y="131" width="12" height="12" rx="2.5" fill="#11201a"/><rect x="669" y="131" width="12" height="12" rx="2.5" fill="#11201a"/><rect x="684" y="131" width="12" height="12" rx="2.5" fill="#11201a"/><rect x="699" y="131" width="12" height="12" rx="2.5" fill="#11201a"/><rect x="714" y="131" width="12" height="12" rx="2.5" fill="#11201a"/><rect x="729" y="131" width="12" height="12" rx="2.5" fill="#11201a"/><rect x="744" y="131" width="12" height="12" rx="2.5" fill="#0f3b2c"/><rect x="759" y="131" width="12" height="12" rx="2.5" fill="#11201a"/><rect x="774" y="131" width="12" height="12" rx="2.5" fill="#11201a"/><rect x="789" y="131" width="12" height="12" rx="2.5" fill="#11201a"/><rect x="24" y="146" width="12" height="12" rx="2.5" fill="#11201a"/><rect x="39" y="146" width="12" height="12" rx="2.5" fill="#11201a"/><rect x="54" y="146" width="12" height="12" rx="2.5" fill="#11201a"/><rect x="69" y="146" width="12" height="12" rx="2.5" fill="#11201a"/><rect x="84" y="146" width="12" height="12" rx="2.5" fill="#11201a"/><rect x="99" y="146" width="12" height="12" rx="2.5" fill="#11201a"/><rect x="114" y="146" width="12" height="12" rx="2.5" fill="#11201a"/><rect x="129" y="146" width="12" height="12" rx="2.5" fill="#11201a"/><rect x="144" y="146" width="12" height="12" rx="2.5" fill="#11201a"/><rect x="159" y="146" width="12" height="12" rx="2.5" fill="#11201a"/><rect x="174" y="146" width="12" height="12" rx="2.5" fill="#0f3b2c"/><rect x="189" y="146" width="12" height="12" rx="2.5" fill="#11201a"/><rect x="204" y="146" width="12" height="12" rx="2.5" fill="#11201a"/><rect x="219" y="146" width="12" height="12" rx="2.5" fill="#11201a"/><rect x="234" y="146" width="12" height="12" rx="2.5" fill="#11201a"/><rect x="249" y="146" width="12" height="12" rx="2.5" fill="#11201a"/><rect x="264" y="146" width="12" height="12" rx="2.5" fill="#11201a"/><rect x="279" y="146" width="12" height="12" rx="2.5" fill="#11201a"/><rect x="294" y="146" width="12" height="12" rx="2.5" fill="#11623f"/><rect x="309" y="146" width="12" height="12" rx="2.5" fill="#11201a"/><rect x="324" y="146" width="12" height="12" rx="2.5" fill="#11201a"/><rect x="339" y="146" width="12" height="12" rx="2.5" fill="#11201a"/><rect x="354" y="146" width="12" height="12" rx="2.5" fill="#11201a"/><rect x="369" y="146" width="12" height="12" rx="2.5" fill="#0f3b2c"/><rect x="384" y="146" width="12" height="12" rx="2.5" fill="#11201a"/><rect x="399" y="146" width="12" height="12" rx="2.5" fill="#11201a"/><rect x="414" y="146" width="12" height="12" rx="2.5" fill="#11201a"/><rect x="429" y="146" width="12" height="12" rx="2.5" fill="#11201a"/><rect x="444" y="146" width="12" height="12" rx="2.5" fill="#11201a"/><rect x="459" y="146" width="12" height="12" rx="2.5" fill="#11201a"/><rect x="474" y="146" width="12" height="12" rx="2.5" fill="#11201a"/><rect x="489" y="146" width="12" height="12" rx="2.5" fill="#11201a"/><rect x="504" y="146" width="12" height="12" rx="2.5" fill="#11201a"/><rect x="519" y="146" width="12" height="12" rx="2.5" fill="#11201a"/><rect x="534" y="146" width="12" height="12" rx="2.5" fill="#11201a"/><rect x="549" y="146" width="12" height="12" rx="2.5" fill="#11201a"/><rect x="564" y="146" width="12" height="12" rx="2.5" fill="#11201a"/><rect x="579" y="146" width="12" height="12" rx="2.5" fill="#11201a"/><rect x="594" y="146" width="12" height="12" rx="2.5" fill="#11201a"/><rect x="609" y="146" width="12" height="12" rx="2.5" fill="#11201a"/><rect x="624" y="146" width="12" height="12" rx="2.5" fill="#11201a"/><rect x="639" y="146" width="12" height="12" rx="2.5" fill="#11201a"/><rect x="654" y="146" width="12" height="12" rx="2.5" fill="#11201a"/><rect x="669" y="146" width="12" height="12" rx="2.5" fill="#11201a"/><rect x="684" y="146" width="12" height="12" rx="2.5" fill="#11201a"/><rect x="699" y="146" width="12" height="12" rx="2.5" fill="#11201a"/><rect x="714" y="146" width="12" height="12" rx="2.5" fill="#11201a"/><rect x="729" y="146" width="12" height="12" rx="2.5" fill="#11201a"/><rect x="744" y="146" width="12" height="12" rx="2.5" fill="#11201a"/><rect x="759" y="146" width="12" height="12" rx="2.5" fill="#11201a"/><rect x="774" y="146" width="12" height="12" rx="2.5" fill="#11623f"/><rect x="789" y="146" width="12" height="12" rx="2.5" fill="#11201a"/></g>

  <!-- radar sweep, clipped to the grid -->
  <g clip-path="url(#gridclip)">
    <g class="sweep"><rect x="24" y="54" width="34" height="109" fill="url(#beam2)"/></g>
  </g>

  <text x="24" y="170" font-size="11" fill="#5c6b64" font-family="'SFMono-Regular',ui-monospace,'JetBrains Mono','Fira Code','Cascadia Code',Consolas,'Liberation Mono',Menlo,monospace">less</text>
  <rect x="58" y="160" width="11" height="11" rx="2" fill="#0f3b2c"/>
  <rect x="73" y="160" width="11" height="11" rx="2" fill="#11623f"/>
  <rect x="88" y="160" width="11" height="11" rx="2" fill="#159f63"/>
  <rect x="103" y="160" width="11" height="11" rx="2" fill="#00ff9c"/>
  <text x="120" y="170" font-size="11" fill="#5c6b64" font-family="'SFMono-Regular',ui-monospace,'JetBrains Mono','Fira Code','Cascadia Code',Consolas,'Liberation Mono',Menlo,monospace">more</text>
</svg>
